<?xml version="1.0" encoding="UTF-8"?>
<svg version="1.1" xmlns="http://www.w3.org/2000/svg" width="1024" height="1024">
<path d="M0 0 C337.92 0 675.84 0 1024 0 C1024 337.92 1024 675.84 1024 1024 C686.08 1024 348.16 1024 0 1024 C0 686.08 0 348.16 0 0 Z " fill="#EFF5FE" transform="translate(0,0)"/>
<path d="M0 0 C28.38 0 56.76 0 86 0 C86.4375 42.375 86.4375 42.375 86.56811523 55.51708984 C86.6115893 59.57075955 86.6115893 59.57075955 86.65589905 63.62442017 C86.6745226 65.36374725 86.69195872 67.10308741 86.70826721 68.84243774 C86.87947608 86.90781811 87.46865556 104.93428902 88 123 C112.75 123 137.5 123 163 123 C168.00226721 112.28085598 172.99293029 101.55810393 177.9375 90.8125 C178.30172058 90.02130768 178.66594116 89.23011536 179.04119873 88.41494751 C184.83862984 75.81129777 190.50610186 63.15438025 196.10693359 50.46234131 C201.68822167 37.82476016 207.4760227 25.29304652 213.39306641 12.80932617 C213.6962529 12.16864197 213.99943939 11.52795776 214.31181335 10.86785889 C215.12710866 9.14659588 215.94516585 7.42664183 216.76342773 5.70678711 C218.0621629 2.99113672 218.0621629 2.99113672 219 0 C248.04 0 277.08 0 307 0 C301.27603475 13.73751659 301.27603475 13.73751659 298.35546875 20 C297.6803614 21.45944559 297.00531522 22.91891947 296.33032227 24.37841797 C295.9817215 25.1300824 295.63312073 25.88174683 295.2739563 26.65618896 C289.08366955 40.01048808 283.00714507 53.40968161 277.0625 66.875 C271.47044076 79.53403715 265.75383812 92.12993217 259.9375 104.6875 C259.36769409 105.91776413 259.36769409 105.91776413 258.78637695 107.17288208 C258.02382462 108.81913783 257.26127173 110.46539333 256.49871826 112.11164856 C256.12531311 112.91785141 255.75190796 113.72405426 255.3671875 114.5546875 C254.99619934 115.35561325 254.62521118 116.156539 254.24298096 116.98173523 C250.65035013 124.74393486 247.09802082 132.52414615 243.5625 140.3125 C243.26446472 140.96892487 242.96642944 141.62534973 242.65936279 142.30166626 C238.90017303 150.58414059 235.1529128 158.87200964 231.40625 167.16015625 C231.01109192 168.03425644 230.61593384 168.90835663 230.20880127 169.8089447 C229.61092804 171.13146996 229.61092804 171.13146996 229.00097656 172.48071289 C228.59931274 173.36920929 228.19764893 174.25770569 227.78381348 175.17312622 C226.96981244 176.97391537 226.15592892 178.77475763 225.34216309 180.57565308 C219.54324404 193.40791885 213.70196654 206.21999514 207.82888794 219.01846313 C202.45408598 230.73802275 197.2150299 242.51415638 192.00823975 254.30914307 C186.10519442 267.66575288 179.95670819 280.8974103 173.66027832 294.07289124 C169.58951146 302.66242211 165.8182292 311.27261897 162 320 C141.21 320 120.42 320 99 320 C96.69618877 260.53287252 96.69618877 260.53287252 112.81396484 232.89306641 C116.22136427 226.96570714 118.91098711 220.70150153 121.64541626 214.44345093 C122.47757017 212.55100878 123.32925099 210.6687246 124.18823242 208.78833008 C124.69330322 207.67224365 125.19837402 206.55615723 125.71875 205.40625 C126.38293945 203.94155273 126.38293945 203.94155273 127.06054688 202.44726562 C128.17918994 199.97011027 128.17918994 199.97011027 128 197 C114.8 197 101.6 197 88 197 C87.67 237.59 87.34 278.18 87 320 C58.29 320 29.58 320 0 320 C0 214.4 0 108.8 0 0 Z " fill="#191F2B" transform="translate(278,174)"/>
<path d="M0 0 C1.62215675 0.00333092 1.62215675 0.00333092 3.27708435 0.00672913 C4.49827469 0.00680466 5.71946503 0.00688019 6.97766113 0.00695801 C8.32022644 0.0120654 9.66279134 0.01728141 11.00535583 0.02259827 C12.37156116 0.02446252 13.73776716 0.02588639 15.10397339 0.02688599 C18.70596654 0.03071058 22.30791959 0.04054035 25.90989685 0.05158997 C29.58298703 0.06180536 33.25608368 0.06638388 36.92918396 0.07142639 C44.14079081 0.08216268 51.35236459 0.09923838 58.56394958 0.12025452 C56.12253181 6.3276928 53.58117976 12.46816061 50.83348083 18.54603577 C50.48600296 19.31874313 50.13852509 20.0914505 49.78051758 20.88757324 C48.64808353 23.40365674 47.51239312 25.91825373 46.37644958 28.43275452 C45.57319402 30.21496625 44.76997194 31.99719307 43.96678162 33.7794342 C38.3333326 46.26608766 32.62455285 58.717097 26.88453674 71.15504456 C21.59535057 82.62135006 16.41974032 94.13369675 11.31394958 105.68275452 C6.12976724 117.40844437 0.84781327 129.07716551 -4.58033752 140.69252014 C-9.33968548 150.88204077 -13.99778537 161.11555856 -18.64161682 171.35804749 C-19.27878078 172.76317769 -19.91598803 174.16828827 -20.55323792 175.57337952 C-20.87132416 176.27476044 -21.1894104 176.97614136 -21.51713562 177.69877625 C-23.7935731 182.71442572 -26.08389372 187.72358256 -28.38136292 192.72962952 C-35.47437988 208.18929673 -42.48529435 223.67971072 -49.36436462 239.2358551 C-54.88526754 251.71370352 -60.54162416 264.12507852 -66.26194763 276.51264954 C-71.59740219 288.06767687 -76.83595763 299.65950638 -81.9467926 311.31581116 C-82.39699768 312.33924622 -82.84720276 313.36268127 -83.31105042 314.41712952 C-83.70034729 315.30754944 -84.08964417 316.19796936 -84.49073792 317.1153717 C-85.43605042 319.12025452 -85.43605042 319.12025452 -86.43605042 320.12025452 C-88.33848803 320.21416748 -90.244435 320.2376911 -92.14918518 320.23377991 C-93.37037552 320.23370438 -94.59156586 320.23362885 -95.84976196 320.23355103 C-97.19232727 320.22844363 -98.53489217 320.22322762 -99.87745667 320.21791077 C-101.24366199 320.21604651 -102.60986799 320.21462264 -103.97607422 320.21362305 C-107.57806737 320.20979846 -111.18002042 320.19996869 -114.78199768 320.18891907 C-118.45508786 320.17870368 -122.12818451 320.17412515 -125.80128479 320.16908264 C-133.01289164 320.15834636 -140.22446542 320.14127065 -147.43605042 320.12025452 C-145.66445047 314.52749806 -143.68111122 309.18027392 -141.20558167 303.85072327 C-140.8985733 303.18530014 -140.59156494 302.51987701 -140.2752533 301.83428955 C-139.61501104 300.40395024 -138.95276776 298.97453316 -138.28868103 297.54597473 C-136.47566866 293.64461766 -134.67868687 289.73588943 -132.88136292 285.82728577 C-132.32417824 284.61655396 -132.32417824 284.61655396 -131.7557373 283.38136292 C-128.29734687 275.85081558 -124.93833398 268.27796214 -121.59434509 260.6960907 C-115.13759386 246.05833871 -108.48333745 231.52187186 -101.72465515 217.02122498 C-96.04783948 204.83585044 -90.49037617 192.60536683 -85.06105042 180.30775452 C-79.92050453 168.66552759 -74.68155843 157.08184459 -69.29347229 145.55140686 C-65.16094053 136.70306164 -61.09621957 127.82578336 -57.06105042 118.93275452 C-56.59103607 117.89711868 -56.59103607 117.89711868 -56.11152649 116.84056091 C-54.51990212 113.33305457 -52.9291268 109.82516408 -51.33888245 106.31703186 C-48.22943761 99.45795653 -45.11429614 92.60146944 -41.99855042 85.74525452 C-41.69096802 85.06830536 -41.38338562 84.3913562 -41.06648254 83.69389343 C-35.54701006 71.54748559 -30.0033339 59.41222008 -24.44972229 47.28138733 C-20.99443341 39.73160609 -17.55138962 32.1765007 -14.12745667 24.61244202 C-13.42758838 23.06751946 -12.72771861 21.52259757 -12.02784729 19.97767639 C-10.69721359 17.04000022 -9.36956237 14.10099964 -8.04347229 11.16127014 C-7.44657085 9.84286378 -6.84957126 8.52450185 -6.25245667 7.20619202 C-5.73111145 6.05167542 -5.20976624 4.89715881 -4.67262268 3.70765686 C-2.97074473 0.14664946 -2.97074473 0.14664946 0 0 Z " fill="#EE6838" transform="translate(634.4360504150391,173.87974548339844)"/>
<path d="M0 0 C14.19 0 28.38 0 43 0 C48.92937921 11.2658205 54.85540511 22.52724727 60.67578125 33.84887695 C62.07550822 36.57039155 63.4793294 39.28978715 64.88405418 42.00872517 C65.62730312 43.45877519 66.36336254 44.91254762 67.09002113 46.37098217 C69.41535799 51.01954855 71.87943707 55.54207895 74.49813843 60.03242493 C84.37535936 77.50413038 86.95442048 91.37362556 86.3671875 111.640625 C86.3330098 114.35824113 86.32040532 117.07585199 86.30715942 119.79364014 C86.26429558 126.13031369 86.15035584 132.46345058 86.00826657 138.79859233 C85.83402102 146.74655018 85.75927438 154.69512938 85.68359375 162.64453125 C85.54873257 176.76574941 85.26811468 190.87929335 85 205 C56.95 205 28.9 205 0 205 C0.04382813 196.77449219 0.08765625 188.54898438 0.1328125 180.07421875 C0.13901116 174.16026927 0.13888011 168.24658155 0.12969971 162.33266354 C0.11867659 154.69511046 0.12198321 147.05850603 0.18164062 139.42114258 C0.23396108 132.71620278 0.23293608 126.01311679 0.20095444 119.30796242 C0.19723516 116.76420466 0.21068263 114.22035558 0.24249649 111.67679405 C0.42689886 95.84696905 -1.00631711 84.23772003 -9.80241013 70.84356308 C-11.5005428 68.22946725 -12.97380073 65.50391838 -14.453125 62.76171875 C-15.8713488 60.18611613 -17.29142523 57.61524795 -18.75390625 55.06445312 C-19.21152344 54.22205078 -19.66914062 53.37964844 -20.140625 52.51171875 C-20.54829102 51.78428467 -20.95595703 51.05685059 -21.37597656 50.30737305 C-22.8107198 45.00230328 -18.71685796 39.03301634 -16.4453125 34.2578125 C-16.10249237 33.53061005 -15.75967224 32.80340759 -15.40646362 32.0541687 C-14.68352116 30.52218447 -13.95897385 28.99095665 -13.23291016 27.46044922 C-12.1323854 25.14056825 -11.03644821 22.81856701 -9.94140625 20.49609375 C-9.23464246 18.99987363 -8.52761954 17.50377588 -7.8203125 16.0078125 C-7.49725128 15.32421661 -7.17419006 14.64062073 -6.84133911 13.93630981 C-4.62068583 9.25715508 -2.3174181 4.6348362 0 0 Z " fill="#191E2B" transform="translate(655,289)"/>
<path d="M0 0 C8.25 0 16.5 0 25 0 C25.33 15.51 25.66 31.02 26 47 C28.31 44.69 30.62 42.38 33 40 C41.62937262 34.65800742 51.13948413 34.97822104 60.9375 36.4375 C69.49577078 38.5770677 75.81309606 43.62762296 80.4375 51.0625 C83.78670437 56.94984785 85.25229244 62.1333338 85.22705078 68.92333984 C85.22734283 69.5874588 85.22763489 70.25157776 85.22793579 70.93582153 C85.22655261 73.11099737 85.21103988 75.28582218 85.1953125 77.4609375 C85.19157876 78.97693698 85.18873349 80.49293889 85.18673706 82.00894165 C85.17912902 85.98409782 85.1595051 89.95910606 85.1373291 93.9342041 C85.11680948 97.9964803 85.1077223 102.05878058 85.09765625 106.12109375 C85.07625629 114.08080436 85.04109748 122.04036669 85 130 C76.75 130 68.5 130 60 130 C59.98541748 128.17831299 59.97083496 126.35662598 59.95581055 124.47973633 C59.90410923 118.4525912 59.83880999 112.42572119 59.76428509 106.39882374 C59.71960782 102.74564138 59.68034623 99.09256985 59.65356445 95.43920898 C59.62750455 91.91173821 59.58708408 88.38469454 59.53681374 84.85748863 C59.51207424 82.86072321 59.50210702 80.86379245 59.49235535 78.86689758 C59.47256119 77.64600937 59.45276703 76.42512115 59.43237305 75.16723633 C59.41571846 73.55840324 59.41571846 73.55840324 59.39872742 71.91706848 C58.948294 68.62172168 57.80975153 66.75158797 56 64 C56 63.34 56 62.68 56 62 C55.21625 61.690625 54.4325 61.38125 53.625 61.0625 C51 60 51 60 49 59 C43.04298055 58.44286868 38.04791601 58.47819814 33 62 C28.14697856 66.82598511 25.77039652 70.93626684 25.68115234 77.77832031 C25.66128265 78.9392218 25.64141296 80.10012329 25.62094116 81.29620361 C25.60361435 83.1682547 25.60361435 83.1682547 25.5859375 85.078125 C25.56657135 86.35983582 25.5472052 87.64154663 25.5272522 88.96209717 C25.47599373 92.36174365 25.43633471 95.76142965 25.39910889 99.16125488 C25.35902959 102.63364387 25.30795522 106.10586933 25.2578125 109.578125 C25.16112777 116.38530374 25.07771606 123.19257854 25 130 C16.75 130 8.5 130 0 130 C0 87.1 0 44.2 0 0 Z " fill="#1A1F2B" transform="translate(723,542)"/>
<path d="M0 0 C7.65890413 5.55645986 12.38458407 12.1439232 14.390625 21.421875 C14.7877244 26.60403381 14.7414006 31.76508019 14.68359375 36.95703125 C14.67798806 38.44632029 14.67372257 39.93561492 14.67073059 41.4249115 C14.65935825 45.31627073 14.62995828 49.20728601 14.59661865 53.09851074 C14.56575211 57.08060048 14.55219007 61.0627466 14.53710938 65.04492188 C14.50507981 72.83741342 14.45237584 80.62955191 14.390625 88.421875 C6.800625 88.421875 -0.789375 88.421875 -8.609375 88.421875 C-9.104375 83.966875 -9.104375 83.966875 -9.609375 79.421875 C-10.07085937 79.88078125 -10.53234375 80.3396875 -11.0078125 80.8125 C-19.62631618 88.9200252 -27.38631916 90.99456329 -38.99121094 90.82446289 C-48.63608523 90.46758232 -56.59658448 88.40349756 -63.609375 81.421875 C-70.08315277 72.91900271 -70.31120628 64.74591486 -69.609375 54.421875 C-68.25359911 48.62744429 -64.84393128 45.03197983 -59.99609375 41.734375 C-51.49765469 37.06092897 -42.12181603 35.56255315 -32.609375 34.421875 C-31.86719727 34.33164062 -31.12501953 34.24140625 -30.36035156 34.1484375 C-14.82591584 32.27697109 -14.82591584 32.27697109 -9.609375 32.421875 C-10.59251377 26.60065858 -11.7447689 22.0821353 -15.609375 17.421875 C-19.0181873 15.17498292 -22.02155285 15.12333565 -26.046875 15.109375 C-27.15933594 15.09261719 -28.27179688 15.07585938 -29.41796875 15.05859375 C-32.98546286 15.46468549 -34.79531755 16.21612874 -37.609375 18.421875 C-38.8445076 20.43913787 -38.8445076 20.43913787 -39.734375 22.609375 C-40.984375 24.7421875 -40.984375 24.7421875 -42.609375 26.421875 C-46.34652887 27.29469712 -49.82480406 26.85059593 -53.609375 26.421875 C-54.640625 26.36128906 -55.671875 26.30070313 -56.734375 26.23828125 C-62.22669952 25.8878595 -62.22669952 25.8878595 -64.609375 25.421875 C-66.23608246 22.16846009 -64.75037026 19.49176161 -63.67578125 16.15234375 C-60.40737044 7.78377542 -55.51287057 2.58227507 -47.609375 -1.578125 C-46.85527344 -1.99191406 -46.10117187 -2.40570312 -45.32421875 -2.83203125 C-32.05324644 -8.86811533 -12.33799301 -7.46189997 0 0 Z " fill="#191E2A" transform="translate(388.609375,583.578125)"/>
<path d="M0 0 C8.25 0 16.5 0 25 0 C25.33 15.84 25.66 31.68 26 48 C28.475 45.03 28.475 45.03 31 42 C40.00387333 35.2051515 49.25375455 34.95210741 60 36 C68.1041113 37.3030588 74.91551045 41.89393806 79.828125 48.43359375 C84.13374879 55.29960062 86.25842576 61.68008989 86.22705078 69.85327148 C86.22734283 70.49802933 86.22763489 71.14278717 86.22793579 71.80708313 C86.22655626 73.91189626 86.21106128 76.01634342 86.1953125 78.12109375 C86.19157745 79.59082343 86.1887328 81.06055562 86.18673706 82.5302887 C86.1791393 86.37884523 86.15952447 90.22724829 86.1373291 94.07574463 C86.11678708 98.01076177 86.10771755 101.94580395 86.09765625 105.88085938 C86.07627448 113.5873173 86.04112433 121.2936175 86 129 C78.08 129 70.16 129 62 129 C61.9906543 127.24413574 61.98130859 125.48827148 61.97167969 123.67919922 C61.93609103 117.86357891 61.88225405 112.04827966 61.81609726 106.23293877 C61.77666697 102.70865959 61.74445718 99.18462859 61.72900391 95.66015625 C61.71089674 91.60376248 61.66092678 87.54829512 61.609375 83.4921875 C61.60814636 82.23260223 61.60691772 80.97301697 61.60565186 79.67526245 C61.48695267 71.03313406 61.48695267 71.03313406 57 64 C52.19641832 59.55668694 48.69055023 58.61307737 42.15234375 58.72265625 C36.81944982 59.40983496 32.5517917 62.04179319 29.0625 66.0625 C26.23229817 70.09339352 25.86769433 72.85613027 25.79467773 77.66479492 C25.77473251 78.82577194 25.75478729 79.98674896 25.73423767 81.1829071 C25.70916893 83.06270012 25.70916893 83.06270012 25.68359375 84.98046875 C25.66281265 86.26359451 25.64203156 87.54672028 25.62062073 88.86872864 C25.56548094 92.27662815 25.51603611 95.68458741 25.46777344 99.09259033 C25.41749921 102.57154648 25.36184409 106.05041607 25.30664062 109.52929688 C25.19915809 116.3527911 25.0981886 123.17636577 25 130 C16.75 130 8.5 130 0 130 C0 87.1 0 44.2 0 0 Z " fill="#1A1F2B" transform="translate(219,542)"/>
<path d="M0 0 C6.39380137 4.62279104 11.33017665 9.49837678 14 17 C14.3401413 17.89264557 14.68028259 18.78529114 15.0307312 19.70498657 C16.06731711 23.2288434 16.24109891 26.0731842 16.22705078 29.73974609 C16.22734283 30.38435791 16.22763489 31.02896973 16.22793579 31.69311523 C16.22655315 33.80336423 16.21104311 35.91325092 16.1953125 38.0234375 C16.19157856 39.49459643 16.18873339 40.96575785 16.18673706 42.43692017 C16.17913056 46.29371098 16.159508 50.15034921 16.1373291 54.00708008 C16.11680613 57.94870948 16.10772159 61.89036373 16.09765625 65.83203125 C16.07625901 73.55476484 16.04110151 81.27734153 16 89 C7.75 89 -0.5 89 -9 89 C-9.0093457 87.21384277 -9.01869141 85.42768555 -9.02832031 83.58740234 C-9.06390638 77.67200051 -9.11774175 71.75691441 -9.18390274 65.84178734 C-9.22333601 62.25697429 -9.25554438 58.67240533 -9.27099609 55.08740234 C-9.28619074 51.6246726 -9.32068408 48.16261408 -9.36830902 44.70018387 C-9.39026753 42.74280259 -9.39247133 40.78523181 -9.39434814 38.82772827 C-9.47509279 30.0918247 -9.47509279 30.0918247 -14 23 C-19.15593406 18.91821887 -23.52383238 18.30932725 -30.05859375 18.5546875 C-36.04750918 19.46137589 -39.50090299 21.98941308 -43.06933594 26.77539062 C-46.11899902 32.24854072 -45.60328926 38.26597433 -45.609375 44.37109375 C-45.62591125 45.64855972 -45.64244751 46.9260257 -45.65948486 48.24220276 C-45.69970305 51.61742018 -45.72311098 54.99188616 -45.73822021 58.36724854 C-45.75786564 61.81985494 -45.79961344 65.27219158 -45.83984375 68.72460938 C-45.91699248 75.48324436 -45.95755543 82.24070211 -46 89 C-54.25 89 -62.5 89 -71 89 C-71.13205062 80.23584244 -71.26272646 71.47166709 -71.39115143 62.70745564 C-71.45087142 58.63544279 -71.51113406 54.56343966 -71.57275391 50.49145508 C-71.83718019 32.99271047 -72.06645037 15.50136723 -72 -2 C-63.42 -2 -54.84 -2 -46 -2 C-45.67 0.97 -45.34 3.94 -45 7 C-44.52691406 6.54109375 -44.05382812 6.0821875 -43.56640625 5.609375 C-31.75492429 -5.3502067 -14.47526888 -8.43636764 0 0 Z " fill="#191E2A" transform="translate(566,582)"/>
<path d="M0 0 C9.23328474 5.10343119 14.63785865 11.36293911 18.296875 21.26953125 C18.296875 21.92953125 18.296875 22.58953125 18.296875 23.26953125 C11.696875 24.25953125 5.096875 25.24953125 -1.703125 26.26953125 C-3.023125 24.28953125 -4.343125 22.30953125 -5.703125 20.26953125 C-10.50993388 17.05825977 -16.10542937 16.72781877 -21.703125 17.26953125 C-25.50093691 18.80366538 -25.50093691 18.80366538 -28.703125 21.26953125 C-29.30912751 25.35772354 -29.30912751 25.35772354 -28.703125 29.26953125 C-22.63613396 35.02289887 -13.61324857 35.3948939 -5.7109375 36.89257812 C2.53484518 38.56636255 8.80215554 40.59087919 14.671875 46.76953125 C19.53707693 54.2544573 19.29267221 63.10741981 17.90234375 71.7109375 C15.80541039 78.40759564 10.61271347 84.13496024 4.796875 87.87890625 C-2.95276537 91.89548815 -10.26740858 93.66193924 -18.953125 93.64453125 C-19.78996826 93.64291992 -20.62681152 93.64130859 -21.48901367 93.63964844 C-31.48791767 93.44224435 -40.10629908 90.57048972 -47.4765625 83.58984375 C-52.08408942 78.74902433 -56.703125 72.24218084 -56.703125 65.26953125 C-53.64165243 64.763102 -50.57880201 64.26553803 -47.515625 63.76953125 C-46.65130859 63.62644531 -45.78699219 63.48335937 -44.89648438 63.3359375 C-40.79785923 62.67638863 -36.87086476 62.06243859 -32.703125 62.26953125 C-32.290625 63.19765625 -31.878125 64.12578125 -31.453125 65.08203125 C-29.14208013 69.2914344 -27.20610768 70.76853702 -22.703125 72.26953125 C-17.38275901 72.77901685 -13.00137206 72.85150407 -8.078125 70.64453125 C-5.53952413 68.41511568 -5.53952413 68.41511568 -4.515625 65.33203125 C-4.41126519 62.11079174 -4.41126519 62.11079174 -6.8203125 59.70703125 C-9.95677558 57.05506247 -12.06340148 56.20553661 -16.015625 55.20703125 C-17.2428125 54.88347656 -18.47 54.55992187 -19.734375 54.2265625 C-22.43499166 53.56151543 -25.1438245 52.94459727 -27.859375 52.34375 C-44.5096019 48.59389204 -44.5096019 48.59389204 -50.09375 41.50390625 C-53.96637197 35.23134953 -54.42529828 28.45986517 -53.703125 21.26953125 C-51.88521836 13.59263889 -48.01529664 7.97230813 -41.703125 3.26953125 C-29.1214116 -3.64009824 -13.52996061 -5.94561934 0 0 Z " fill="#191D29" transform="translate(692.703125,580.73046875)"/>
<path d="M0 0 C0.69351563 -0.00386719 1.38703125 -0.00773438 2.1015625 -0.01171875 C7.24833354 -0.00166646 7.24833354 -0.00166646 8.375 1.125 C8.46226223 2.90571246 8.48199041 4.6898314 8.47265625 6.47265625 C8.46943359 7.55224609 8.46621094 8.63183594 8.46289062 9.74414062 C8.45032227 11.44860352 8.45032227 11.44860352 8.4375 13.1875 C8.43298828 14.32767578 8.42847656 15.46785156 8.42382812 16.64257812 C8.41199747 19.47010351 8.3955141 22.2975264 8.375 25.125 C7.25222656 25.15078125 6.12945312 25.1765625 4.97265625 25.203125 C-8.0573824 25.42969848 -8.0573824 25.42969848 -19.19921875 31.546875 C-23.28580189 36.09012502 -24.85769673 40.54165512 -24.94384766 46.55786133 C-24.96371735 47.61858353 -24.98358704 48.67930573 -25.00405884 49.77217102 C-25.01561005 50.9056749 -25.02716125 52.03917877 -25.0390625 53.20703125 C-25.05842865 54.37634689 -25.0777948 55.54566254 -25.0977478 56.75041199 C-25.15745195 60.47936749 -25.20389297 64.20835401 -25.25 67.9375 C-25.28818815 70.4681123 -25.32724037 72.99871173 -25.3671875 75.52929688 C-25.46476966 81.72779697 -25.54441299 87.92616242 -25.625 94.125 C-34.205 94.125 -42.785 94.125 -51.625 94.125 C-51.625 63.765 -51.625 33.405 -51.625 2.125 C-43.045 2.125 -34.465 2.125 -25.625 2.125 C-25.295 5.425 -24.965 8.725 -24.625 12.125 C-23.8 11.0525 -22.975 9.98 -22.125 8.875 C-16.24568889 1.9762359 -8.80933585 -0.04967671 0 0 Z " fill="#1A1F2C" transform="translate(473.625,577.875)"/>
<path d="M0 0 C8.25 0 16.5 0 25 0 C25 30.36 25 60.72 25 92 C16.75 92 8.5 92 0 92 C0 61.64 0 31.28 0 0 Z " fill="#1D222F" transform="translate(600,580)"/>
<path d="M0 0 C2.64 0 5.28 0 8 0 C8 17.49 8 34.98 8 53 C5.03 53 2.06 53 -1 53 C-1.33 52.01 -1.66 51.02 -2 50 C-2.39574219 50.47566406 -2.79148437 50.95132813 -3.19921875 51.44140625 C-6.52379092 54.31885591 -10.75086946 54.21875399 -15 54 C-19.42844372 51.86778636 -22.30304972 49.09536895 -25 45 C-27.15863015 36.59420843 -27.00811119 27.73980092 -23 20 C-19.37439426 16.55125308 -16.72171341 14.8481506 -11.75 14.6875 C-11.00234375 14.65011719 -10.2546875 14.61273437 -9.484375 14.57421875 C-7 15 -7 15 -1 19 C-0.67 12.73 -0.34 6.46 0 0 Z " fill="#191D28" transform="translate(440,767)"/>
<path d="M0 0 C5.10508718 1.88666266 6.6638589 5.32771781 9 10 C11.23102894 16.69308682 10.89160111 24.82812602 8.0546875 31.3125 C5.62685663 35.1970294 2.34416451 37.55194516 -2 39 C-6.96368063 39.36768005 -10.02709051 39.13017111 -14 36 C-14 35.34 -14 34.68 -14 34 C-14.66 34 -15.32 34 -16 34 C-16 39.94 -16 45.88 -16 52 C-18.64 52 -21.28 52 -24 52 C-24 35.17 -24 18.34 -24 1 C-21.36 1 -18.72 1 -16 1 C-15.67 1.99 -15.34 2.98 -15 4 C-14.071875 3.01 -14.071875 3.01 -13.125 2 C-8.73700762 -0.80831513 -5.07873447 -0.67046 0 0 Z " fill="#151923" transform="translate(694,782)"/>
<path d="M0 0 C2.64 0 5.28 0 8 0 C8.33 5.94 8.66 11.88 9 18 C10.65 17.01 12.3 16.02 14 15 C18.51820328 14.12779032 22.13550316 14.60852973 26.3125 16.5 C32.07655015 21.86190711 33.27335233 26.64612408 33.5625 34.5 C33.37679091 40.93578057 32.54467616 45.33541154 28 50 C24.7170933 52.91813929 22.27293296 54.23376725 17.9375 54.4375 C14.01357091 54.00150788 12.06701662 53.41643734 9 51 C8.67 50.34 8.34 49.68 8 49 C7.67 50.32 7.34 51.64 7 53 C4.69 53 2.38 53 0 53 C0 35.51 0 18.02 0 0 Z " fill="#10131C" transform="translate(335,767)"/>
<path d="M0 0 C4.82616478 2.21287031 6.98844749 5.9930247 9.09765625 10.7265625 C11.14985276 17.07469037 10.7049173 23.49106766 8.09375 29.62109375 C5.74820935 33.45104999 2.2805943 36.71889628 -2.04296875 38.08203125 C-7.02169554 38.99528883 -10.76019173 38.91518632 -15.2109375 36.4453125 C-19.46234823 33.4651974 -21.75276696 30.50431756 -23.0234375 25.4453125 C-23.9330386 18.02123495 -24.22362161 11.1365682 -19.49609375 5 C-13.81756946 -0.99483466 -7.86985717 -2.15737397 0 0 Z " fill="#1D222E" transform="translate(650.0234375,782.5546875)"/>
<path d="M0 0 C5.67458978 1.92721917 9.32050871 5.64101742 12 11 C12 14.63 12 18.26 12 22 C3.75 22 -4.5 22 -13 22 C-10.71183213 28.53576165 -10.71183213 28.53576165 -8 31 C-2.04872762 31.59614714 -2.04872762 31.59614714 3.125 28.875 C4.07375 28.25625 5.0225 27.6375 6 27 C9.375 27.75 9.375 27.75 12 29 C10.18651505 33.61614351 6.96627445 35.93714895 2.6875 38.25 C-3.65574221 40.02020713 -8.556344 39.42138701 -14.23828125 36.2734375 C-18.15821673 33.43995864 -20.12182624 29.64529298 -21 25 C-21.92490119 11.23320158 -21.92490119 11.23320158 -18 6 C-12.16204596 0.31772473 -7.97448055 -0.6635161 0 0 Z " fill="#191D28" transform="translate(479,782)"/>
<path d="M0 0 C5.67458978 1.92721917 9.32050871 5.64101742 12 11 C12 14.63 12 18.26 12 22 C3.75 22 -4.5 22 -13 22 C-10.81940167 28.84825895 -10.81940167 28.84825895 -7 31 C-2.81619104 31.30427702 0.47170685 31.44266449 4 29 C4.33 28.34 4.66 27.68 5 27 C9.75 27.875 9.75 27.875 12 29 C10.18651505 33.61614351 6.96627445 35.93714895 2.6875 38.25 C-2.31423868 39.64583405 -6.38932161 39.60005665 -11.1875 37.8125 C-15.20036034 35.22643445 -18.11584504 32.7262073 -20.3125 28.4375 C-21.82562849 20.87185753 -22.20238188 13.4467373 -18.21484375 6.62109375 C-13.20709683 -0.0612695 -7.79176777 -0.6483135 0 0 Z " fill="#13161F" transform="translate(734,782)"/>
<path d="M0 0 C4.19826665 3.19068266 6.46295531 6.38886593 8.125 11.375 C8.125 14.345 8.125 17.315 8.125 20.375 C-0.125 20.375 -8.375 20.375 -16.875 20.375 C-15.71948274 27.27975759 -15.71948274 27.27975759 -11.875 29.375 C-6.06429031 30.06383968 -6.06429031 30.06383968 -1.25 27.25 C-0.46625 26.63125 0.3175 26.0125 1.125 25.375 C4.4375 26.125 4.4375 26.125 7.125 27.375 C5.76731796 32.26265533 3.45465579 33.90091098 -0.875 36.375 C-5.65185943 37.96728648 -10.33342229 38.36933654 -15.1015625 36.50390625 C-18.87634832 34.34789562 -22.27960038 31.77775012 -24.25 27.79296875 C-25.98682574 21.07362415 -26.48854859 11.44959893 -23.3125 5.125 C-17.1229521 -1.85807968 -8.66006302 -4.42295064 0 0 Z " fill="#1D212D" transform="translate(569.875,783.625)"/>
<path d="M0 0 C4.77201172 2.7719774 7.4010938 5.65544047 9.375 10.859375 C9.85546924 14.22265971 9.6875 17.64944439 9.6875 21.046875 C1.1075 21.046875 -7.4725 21.046875 -16.3125 21.046875 C-14.13190167 27.89513395 -14.13190167 27.89513395 -10.3125 30.046875 C-5.89634704 30.54681684 -3.95109915 30.48998461 -0.25 27.921875 C0.719375 27.303125 1.68875 26.684375 2.6875 26.046875 C6.0625 26.796875 6.0625 26.796875 8.6875 28.046875 C7.12545274 32.26440261 4.23615748 34.42086846 0.6875 37.046875 C-4.07432995 39.11033464 -9.72232366 38.60811371 -14.5 36.921875 C-18.38446678 34.33223048 -21.19907021 31.27373459 -23.3125 27.046875 C-23.49080582 24.3021346 -23.59017275 21.60608448 -23.625 18.859375 C-23.65400391 18.11623047 -23.68300781 17.37308594 -23.71289062 16.60742188 C-23.77757773 10.9298842 -22.58135105 7.70660162 -19.3125 3.046875 C-13.50728887 -1.48118968 -7.00644998 -2.88779357 0 0 Z " fill="#171A24" transform="translate(314.3125,782.953125)"/>
<path d="M0 0 C2.64 0 5.28 0 8 0 C8.14622803 0.62567871 8.29245605 1.25135742 8.44311523 1.89599609 C9.10532792 4.72294291 9.7713655 7.54897487 10.4375 10.375 C10.66759766 11.35984375 10.89769531 12.3446875 11.13476562 13.359375 C11.35712891 14.30039062 11.57949219 15.24140625 11.80859375 16.2109375 C12.01282959 17.08024902 12.21706543 17.94956055 12.42749023 18.84521484 C12.9295171 21.02782093 12.9295171 21.02782093 14 23 C14.20496094 22.00097656 14.40992188 21.00195312 14.62109375 19.97265625 C14.89050781 18.68230469 15.15992188 17.39195312 15.4375 16.0625 C15.70433594 14.77472656 15.97117187 13.48695313 16.24609375 12.16015625 C17 9 17 9 18 8 C20.33297433 7.95907063 22.66705225 7.95758277 25 8 C26.97960678 13.37321841 27.8396799 18.19839948 29 24 C30.65 16.08 32.3 8.16 34 0 C36.64 0 39.28 0 42 0 C41.02375408 4.78767427 40.04509919 9.57484735 39.06420898 14.36157227 C38.73086356 15.99001739 38.39817671 17.61859747 38.06616211 19.24731445 C37.58880946 21.58841169 37.10909021 23.92901332 36.62890625 26.26953125 C36.48095108 26.99775589 36.33299591 27.72598053 36.18055725 28.47627258 C35.58161869 31.38600253 34.94053231 34.17840306 34 37 C31.36 37 28.72 37 26 37 C24.68 31.72 23.36 26.44 22 21 C20.22714569 24.54570863 19.28770187 27.43324673 18.375 31.25 C17.98441406 32.86648438 17.98441406 32.86648438 17.5859375 34.515625 C17.39257812 35.33546875 17.19921875 36.1553125 17 37 C14.36 37 11.72 37 9 37 C7.71519002 32.05287412 6.43352133 27.10494933 5.15478516 22.15625 C4.71912983 20.47210593 4.28260974 18.78818531 3.84521484 17.10449219 C3.21746159 14.68742865 2.59280029 12.26958435 1.96875 9.8515625 C1.77188599 9.0963028 1.57502197 8.34104309 1.37219238 7.56289673 C0 2.22774341 0 2.22774341 0 0 Z " fill="#161923" transform="translate(241,783)"/>
<path d="M0 0 C6.93 0 13.86 0 21 0 C21 15.51 21 31.02 21 47 C24.96 47 28.92 47 33 47 C33 48.98 33 50.96 33 53 C22.11 53 11.22 53 0 53 C0 51.02 0 49.04 0 47 C3.96 47 7.92 47 12 47 C12 33.47 12 19.94 12 6 C8.04 6 4.08 6 0 6 C0 4.02 0 2.04 0 0 Z " fill="#1F232E" transform="translate(587,767)"/>
<path d="M0 0 C3.91259565 2.43450396 6.33867368 4.32852105 7.8125 8.75 C8.35758569 13.44131123 8.26084676 16.85330648 6.125 21.125 C3.11345388 24.54351181 1.10023267 26.43960411 -3.51953125 27.06640625 C-9.23701809 27.33213652 -12.79000453 26.71847152 -17.1875 22.75 C-20.52012847 18.97302107 -20.81401513 15.13237568 -20.67578125 10.2578125 C-19.85658407 6.05041579 -17.46540303 3.39638043 -14.1875 0.75 C-9.40480347 -2.05397306 -5.16094545 -2.02390018 0 0 Z " fill="#191D28" transform="translate(619.1875,541.25)"/>
<path d="M0 0 C0.66 0.66 1.32 1.32 2 2 C8.93 2 15.86 2 23 2 C23 17.18 23 32.36 23 48 C22.67 48 22.34 48 22 48 C22 33.15 22 18.3 22 3 C15.73 3 9.46 3 3 3 C3 43.92 3 84.84 3 127 C9.27 127 15.54 127 22 127 C22 109.84 22 92.68 22 75 C22.66 75 23.32 75 24 75 C24.33 73.02 24.66 71.04 25 69 C26.0611791 72.18353731 26.08692246 74.32541628 26.02172852 77.66479492 C25.99158409 79.40626045 25.99158409 79.40626045 25.96083069 81.1829071 C25.92027809 83.06270012 25.92027809 83.06270012 25.87890625 84.98046875 C25.85529526 86.26359451 25.83168427 87.54672028 25.80735779 88.86872864 C25.74458633 92.27678463 25.67550022 95.68468448 25.60510254 99.09259033 C25.5343563 102.5714203 25.46957701 106.0503608 25.40429688 109.52929688 C25.27537402 116.35298667 25.13922907 123.17651279 25 130 C16.75 130 8.5 130 0 130 C0 87.1 0 44.2 0 0 Z " fill="#2C303C" transform="translate(723,542)"/>
<path d="M0 0 C-0.62265069 7.22274801 -1.82400189 12.27357983 -7.4375 17.25 C-12.45771556 21.42789751 -16.41356616 22.38397639 -22.9375 22.4375 C-23.99227539 22.48680664 -23.99227539 22.48680664 -25.06835938 22.53710938 C-29.03176437 22.57796922 -30.8079686 22.14952642 -33.96484375 19.69140625 C-36 17 -36 17 -36.625 13.5 C-35.82727497 9.03273986 -34.57797413 7.74057593 -31 5 C-25.63764917 2.30538511 -20.882873 1.35298845 -14.9375 0.8125 C-14.16083984 0.73064453 -13.38417969 0.64878906 -12.58398438 0.56445312 C-8.37272083 0.14011751 -4.23790426 -0.08814841 0 0 Z " fill="#EDF3FC" transform="translate(379,632)"/>
<path d="M0 0 C8.25 0 16.5 0 25 0 C25 3.96 25 7.92 25 12 C24.34 12 23.68 12 23 12 C23 9.03 23 6.06 23 3 C16.4 3 9.8 3 3 3 C3 31.38 3 59.76 3 89 C9.6 89 16.2 89 23 89 C22.97905273 87.55230225 22.95810547 86.10460449 22.93652344 84.61303711 C22.86394581 79.22528025 22.81813517 73.83756634 22.78027344 68.44946289 C22.76019854 66.12061285 22.73293264 63.79181295 22.69824219 61.46313477 C22.64954409 58.10941162 22.62698935 54.75635683 22.609375 51.40234375 C22.58872986 50.36665756 22.56808472 49.33097137 22.54681396 48.26390076 C22.54486526 41.93973226 23.32186738 38.18947604 27 33 C28 36 28 36 27 39 C26.88446109 40.73277162 26.82354865 42.46943121 26.79467773 44.20581055 C26.77473251 45.26668381 26.75478729 46.32755707 26.73423767 47.420578 C26.71752518 48.56440445 26.70081268 49.7082309 26.68359375 50.88671875 C26.66281265 52.05886429 26.64203156 53.23100983 26.62062073 54.43867493 C26.55516182 58.18822286 26.49625704 61.93784163 26.4375 65.6875 C26.39431132 68.22722091 26.35069692 70.76693462 26.30664062 73.30664062 C26.19868196 79.53768882 26.09958072 85.76878969 26 92 C17.42 92 8.84 92 0 92 C0 61.64 0 31.28 0 0 Z " fill="#292D37" transform="translate(422,580)"/>
<path d="M0 0 C8.25 0 16.5 0 25 0 C25.04583922 6.79948371 25.08568637 13.59843427 25.10986328 20.39794922 C25.11993892 22.71242079 25.13359975 25.02687959 25.15087891 27.34130859 C25.17505865 30.66246693 25.1864673 33.9834574 25.1953125 37.3046875 C25.20563507 38.34430634 25.21595764 39.38392517 25.22659302 40.45504761 C25.22674408 41.41589264 25.22689514 42.37673767 25.22705078 43.36669922 C25.231492 44.21497284 25.23593323 45.06324646 25.24050903 45.93722534 C25 48 25 48 23 50 C23 34.16 23 18.32 23 2 C16.07 2 9.14 2 2 2 C2 43.58 2 85.16 2 128 C8.93 128 15.86 128 23 128 C22.98428955 126.43636719 22.9685791 124.87273437 22.95239258 123.26171875 C22.89793829 117.43966864 22.86359328 111.6176409 22.83520508 105.79541016 C22.82015381 103.27942108 22.79970819 100.76345808 22.77368164 98.24755859 C22.73713818 94.62330675 22.72023647 90.999403 22.70703125 87.375 C22.69154739 86.25697998 22.67606354 85.13895996 22.66011047 83.98706055 C22.65874366 77.59012721 23.32272704 72.83009382 26 67 C26.495 67.99 26.495 67.99 27 69 C26.67 69.99 26.34 70.98 26 72 C25.88356421 73.88591396 25.82336539 75.77550782 25.79467773 77.66479492 C25.77473251 78.82577194 25.75478729 79.98674896 25.73423767 81.1829071 C25.70916893 83.06270012 25.70916893 83.06270012 25.68359375 84.98046875 C25.66281265 86.26359451 25.64203156 87.54672028 25.62062073 88.86872864 C25.56548094 92.27662815 25.51603611 95.68458741 25.46777344 99.09259033 C25.41749921 102.57154648 25.36184409 106.05041607 25.30664062 109.52929688 C25.19915809 116.3527911 25.0981886 123.17636577 25 130 C16.75 130 8.5 130 0 130 C0 87.1 0 44.2 0 0 Z " fill="#00020C" transform="translate(219,542)"/>
<path d="M0 0 C2.64 0 5.28 0 8 0 C9.48006002 3.93716478 10.95889497 7.87478859 12.4375 11.8125 C13.06881836 13.49182617 13.06881836 13.49182617 13.71289062 15.20507812 C14.11572266 16.27822266 14.51855469 17.35136719 14.93359375 18.45703125 C15.30540771 19.44678955 15.67722168 20.43654785 16.06030273 21.45629883 C16.73872425 23.29274305 17.38090525 25.14271574 18 27 C21.70403552 18.1321032 24.84252933 9.07246572 28 0 C30.64 0 33.28 0 36 0 C33.90764059 8.49987325 31.01588533 16.54879919 27.8125 24.6875 C27.11737305 26.47317383 27.11737305 26.47317383 26.40820312 28.29492188 C25.27705913 31.19858016 24.14092093 34.10017264 23 37 C19.7 37 16.4 37 13 37 C11.14657632 31.89208871 9.29521717 26.78343585 7.44580078 21.67407227 C6.81584011 19.93460677 6.18530723 18.19534839 5.55419922 16.45629883 C4.64922384 13.96228896 3.74628241 11.46755105 2.84375 8.97265625 C2.55939087 8.19036148 2.27503174 7.40806671 1.98205566 6.60206604 C0 1.11387171 0 1.11387171 0 0 Z " fill="#13161E" transform="translate(500,783)"/>
<path d="M0 0 C2 1.625 2 1.625 3 3.625 C3.039992 5.62460012 3.04346799 7.62547242 3 9.625 C-0.375 9.8125 -0.375 9.8125 -4 9.625 C-4.66 8.635 -5.32 7.645 -6 6.625 C-10.06246999 6.01179698 -12.20028964 6.10856897 -15.6796875 8.35546875 C-19.68080661 12.62830167 -18.78485434 18.95444333 -18.8125 24.4375 C-18.83763672 25.60732422 -18.86277344 26.77714844 -18.88867188 27.98242188 C-18.94747182 30.8636193 -18.98380532 33.74329983 -19 36.625 C-21.64 36.625 -24.28 36.625 -27 36.625 C-27 24.415 -27 12.205 -27 -0.375 C-24.36 -0.375 -21.72 -0.375 -19 -0.375 C-18.67 0.615 -18.34 1.605 -18 2.625 C-17.566875 2.150625 -17.13375 1.67625 -16.6875 1.1875 C-12.3349555 -2.84263379 -5.06979232 -2.32365481 0 0 Z " fill="#1C202B" transform="translate(787,783.375)"/>
<path d="M0 0 C1.9375 0.39453125 1.9375 0.39453125 4.375 2.76953125 C7.32539332 7.72619203 7.5794783 11.65952506 6.9375 17.39453125 C5.67078626 20.74441876 4.25669376 23.73493437 0.9375 25.39453125 C-2.375 25.76953125 -2.375 25.76953125 -6.0625 25.39453125 C-9.22204305 22.85315966 -10.77790886 21.24830466 -12.0625 17.39453125 C-12.62834041 11.68171942 -12.30351129 7.31606691 -9.0625 2.39453125 C-5.84671083 0.2506718 -3.830544 -0.07745585 0 0 Z " fill="#ECF1FA" transform="translate(433.0625,788.60546875)"/>
<path d="M0 0 C0.77988281 -0.04898438 1.55976563 -0.09796875 2.36328125 -0.1484375 C4.6875 0.375 4.6875 0.375 6.9453125 2.46484375 C10.1033558 7.74005061 9.47982547 13.43255895 8.6875 19.375 C7.41847953 22.60370253 6.61622003 23.25635146 3.6875 25.375 C0.1875 26.0625 0.1875 26.0625 -3.3125 25.375 C-6.79311061 22.65104387 -8.52073212 20.67773861 -9.3125 16.375 C-9.82378126 11.765087 -10.01789759 7.83934638 -7.375 3.875 C-4.64516066 0.56610383 -4.23133046 0.18005662 0 0 Z " fill="#EDF2FB" transform="translate(351.3125,788.625)"/>
<path d="M0 0 C3.18256788 0.06931182 3.93424156 0.22826274 6.5625 2.25 C9.12437879 5.73415516 9.31129417 7.88204773 9.375 12.1875 C9.40078125 13.22519531 9.4265625 14.26289062 9.453125 15.33203125 C9.07908344 18.80082145 8.20068054 20.59610993 6.125 23.375 C2.60675489 25.72049674 1.26724306 25.95491403 -2.875 25.375 C-5.44785724 23.202365 -7.36496919 21.39506162 -8.875 18.375 C-9.82082723 7.07964016 -9.82082723 7.07964016 -5.875 2.375 C-3.875 0.375 -3.875 0.375 0 0 Z " fill="#EEF3FC" transform="translate(686.875,788.625)"/>
<path d="M0 0 C3.22133889 0.02886504 3.96545032 0.14169255 6.625 2.1875 C9.18687879 5.67165516 9.37379417 7.81954773 9.4375 12.125 C9.46328125 13.16269531 9.4890625 14.20039062 9.515625 15.26953125 C9.14158344 18.73832145 8.26318054 20.53360993 6.1875 23.3125 C2.66925489 25.65799674 1.32974306 25.89241403 -2.8125 25.3125 C-6.55922084 22.23186286 -8.53548661 19.95093905 -9.05078125 15.04296875 C-9.22539896 9.06001465 -8.70398817 5.91153147 -4.8125 1.3125 C-3.8125 0.3125 -3.8125 0.3125 0 0 Z " fill="#EDF3FC" transform="translate(642.8125,788.6875)"/>
<path d="M0 0 C5.30664028 2.71025834 8.09910625 6.76606876 9.9453125 12.3046875 C9.9453125 15.2746875 9.9453125 18.2446875 9.9453125 21.3046875 C1.3653125 21.3046875 -7.2146875 21.3046875 -16.0546875 21.3046875 C-16.3846875 22.6246875 -16.7146875 23.9446875 -17.0546875 25.3046875 C-17.2421875 22.9296875 -17.2421875 22.9296875 -17.0546875 20.3046875 C-16.0646875 19.6446875 -15.0746875 18.9846875 -14.0546875 18.3046875 C-15.0446875 17.6446875 -16.0346875 16.9846875 -17.0546875 16.3046875 C-16.7246875 14.9846875 -16.3946875 13.6646875 -16.0546875 12.3046875 C-16.0546875 13.2946875 -16.0546875 14.2846875 -16.0546875 15.3046875 C-10.1146875 15.3046875 -4.1746875 15.3046875 1.9453125 15.3046875 C1.2853125 12.9946875 0.6253125 10.6846875 -0.0546875 8.3046875 C-2.38064696 7.14170777 -3.84191981 7.13868059 -6.4296875 7.1171875 C-7.20054687 7.10300781 -7.97140625 7.08882812 -8.765625 7.07421875 C-11.27303638 7.32667143 -12.88730652 8.05275283 -15.0546875 9.3046875 C-15.3846875 8.6446875 -15.7146875 7.9846875 -16.0546875 7.3046875 C-17.0446875 6.9746875 -18.0346875 6.6446875 -19.0546875 6.3046875 C-19.0546875 5.3146875 -19.0546875 4.3246875 -19.0546875 3.3046875 C-13.00228789 -0.90567744 -7.21183443 -2.44050671 0 0 Z " fill="#12151D" transform="translate(568.0546875,782.6953125)"/>
<path d="M0 0 C3.77702297 2.63513231 6.60374735 5.7074947 8.6875 9.875 C8.6875 13.505 8.6875 17.135 8.6875 20.875 C0.4375 20.875 -7.8125 20.875 -16.3125 20.875 C-16.3125 22.855 -16.3125 24.835 -16.3125 26.875 C-16.9725 26.215 -17.6325 25.555 -18.3125 24.875 C-17.75694444 20.31944444 -17.75694444 20.31944444 -16.3125 18.875 C-14.97234779 18.71917697 -13.62491097 18.62455858 -12.27734375 18.55859375 C-11.46845703 18.51669922 -10.65957031 18.47480469 -9.82617188 18.43164062 C-8.97603516 18.39232422 -8.12589844 18.35300781 -7.25 18.3125 C-6.39599609 18.26931641 -5.54199219 18.22613281 -4.66210938 18.18164062 C-2.54577963 18.07523298 -0.42916187 17.97458269 1.6875 17.875 C-1.90604938 16.91512607 -5.34727011 16.57256609 -9.0625 16.3125 C-10.23296875 16.22871094 -11.4034375 16.14492188 -12.609375 16.05859375 C-13.50140625 15.99800781 -14.3934375 15.93742188 -15.3125 15.875 C-15.3125 15.545 -15.3125 15.215 -15.3125 14.875 C-9.7025 14.875 -4.0925 14.875 1.6875 14.875 C-0.32401263 8.10010108 -0.32401263 8.10010108 -3.3125 6.875 C-8.88190597 6.25338214 -8.88190597 6.25338214 -13.625 8.625 C-14.181875 9.3675 -14.73875 10.11 -15.3125 10.875 C-15.89 11.6175 -16.4675 12.36 -17.0625 13.125 C-17.475 13.7025 -17.8875 14.28 -18.3125 14.875 C-17.9825 12.895 -17.6525 10.915 -17.3125 8.875 C-19.26249129 9.06971111 -19.26249129 9.06971111 -21.3125 9.875 C-22.59686734 11.8587767 -22.59686734 11.8587767 -23.3125 13.875 C-23.7630519 10.79622867 -23.81292912 8.66489302 -22.1171875 5.98828125 C-15.98384109 -1.36248819 -9.23111628 -3.13509609 0 0 Z " fill="#0C0E16" transform="translate(482.3125,783.125)"/>
<path d="M0 0 C0.33 0 0.66 0 1 0 C1.33 5.94 1.66 11.88 2 18 C3.32 17.67 4.64 17.34 6 17 C11.14160856 16.53258104 15.51098577 16.19593231 20.125 18.6875 C22.16670984 21.2056088 22.73309994 22.79719931 23 26 C22.34 25.34 21.68 24.68 21 24 C21 29.28 21 34.56 21 40 C20.67 40 20.34 40 20 40 C19.96261719 39.27554688 19.92523438 38.55109375 19.88671875 37.8046875 C19.37270152 29.98235365 19.37270152 29.98235365 16 23 C13.94906855 21.59533047 13.94906855 21.59533047 12 21 C12 21.33 12 21.66 12 22 C10.3603125 22.2165625 10.3603125 22.2165625 8.6875 22.4375 C4.15423111 22.90097847 4.15423111 22.90097847 0.8203125 25.578125 C-0.32601294 28.9625144 -0.21165138 32.22395529 -0.125 35.75 C-0.11146484 36.79607422 -0.11146484 36.79607422 -0.09765625 37.86328125 C-0.07419888 39.57566958 -0.03833104 41.28788004 0 43 C-0.66 42.67 -1.32 42.34 -2 42 C-2 40.35 -2 38.7 -2 37 C-2.66 37 -3.32 37 -4 37 C-4.33 41.29 -4.66 45.58 -5 50 C-3.68 50.33 -2.36 50.66 -1 51 C-2.65 51 -4.3 51 -6 51 C-6 34.83 -6 18.66 -6 2 C-4.35 2 -2.7 2 -1 2 C-0.67 1.34 -0.34 0.68 0 0 Z " fill="#262A37" transform="translate(342,767)"/>
<path d="M0 0 C5.23603731 1.59990029 7.23510973 4.44090911 10.25 8.8125 C11.41843722 12.22044188 11.1196222 15.41133398 11 19 C10.17097168 18.76228882 10.17097168 18.76228882 9.32519531 18.51977539 C6.77935695 17.95067733 4.40300555 17.7896572 1.796875 17.68359375 C0.8171875 17.64169922 -0.1625 17.59980469 -1.171875 17.55664062 C-2.18765625 17.51732422 -3.2034375 17.47800781 -4.25 17.4375 C-5.28125 17.39431641 -6.3125 17.35113281 -7.375 17.30664062 C-9.9165387 17.20074318 -12.45817196 17.09866557 -15 17 C-14.01 15.515 -14.01 15.515 -13 14 C-13.66 13.67 -14.32 13.34 -15 13 C-14.52048204 8.68433833 -13.29764982 6.7980059 -10 4 C-9.34 3.67 -8.68 3.34 -8 3 C-8.33 2.34 -8.66 1.68 -9 1 C-6.03 1 -3.06 1 0 1 C0 0.67 0 0.34 0 0 Z " fill="#1E222D" transform="translate(313,785)"/>
<path d="M0 0 C10.32578418 -0.91558677 10.32578418 -0.91558677 14.25 1.23046875 C15.97564827 2.73669192 17.49423913 4.27613449 19 6 C19.99 6.99 20.98 7.98 22 9 C21.67 11.97 21.34 14.94 21 18 C13.08 18 5.16 18 -3 18 C-3 17.01 -3 16.02 -3 15 C3.27 14.67 9.54 14.34 16 14 C15.39669695 8.3114462 15.39669695 8.3114462 12 5 C11.67 5 11.34 5 11 5 C11.66 5.7425 12.32 6.485 13 7.25 C15 10 15 10 15 14 C9.06 14 3.12 14 -3 14 C-1.89655172 7.37931034 -1.89655172 7.37931034 1 4 C1.33 3.34 1.66 2.68 2 2 C1.34 1.34 0.68 0.68 0 0 Z " fill="#1F232F" transform="translate(724,784)"/>
<path d="M0 0 C0.66 1.32 1.32 2.64 2 4 C2.66 4 3.32 4 4 4 C4 22.81 4 41.62 4 61 C10.6 61 17.2 61 24 61 C24 41.86 24 22.72 24 3 C24.33 3 24.66 3 25 3 C25 23.13 25 43.26 25 64 C17.08 64 9.16 64 1 64 C0.67 42.88 0.34 21.76 0 0 Z " fill="#262A35" transform="translate(782,608)"/>
<path d="M0 0 C1.17111328 -0.01224609 2.34222656 -0.02449219 3.54882812 -0.03710938 C4.66580078 -0.03904297 5.78277344 -0.04097656 6.93359375 -0.04296875 C7.96411865 -0.04707764 8.99464355 -0.05118652 10.05639648 -0.05541992 C12.5625 0.1875 12.5625 0.1875 14.5625 2.1875 C14.86116028 4.15415955 14.86116028 4.15415955 14.92895508 6.58959961 C14.95850784 7.50072006 14.98806061 8.41184052 15.01850891 9.35057068 C15.03947128 10.33703079 15.06043365 11.32349091 15.08203125 12.33984375 C15.12175301 13.85645348 15.12175301 13.85645348 15.16227722 15.40370178 C15.21501668 17.5446514 15.26258688 19.68573358 15.30541992 21.8269043 C15.37465519 25.10865578 15.47057686 28.38891218 15.56835938 31.66992188 C15.61621358 33.74735892 15.6624902 35.82483303 15.70703125 37.90234375 C15.73811478 38.88677963 15.7691983 39.87121552 15.80122375 40.88548279 C15.81501572 41.7997554 15.82880768 42.71402802 15.84301758 43.65600586 C15.8614119 44.46049667 15.87980621 45.26498749 15.89875793 46.09385681 C15.5625 48.1875 15.5625 48.1875 12.5625 51.1875 C12.5625 35.0175 12.5625 18.8475 12.5625 2.1875 C4.3125 2.1875 -3.9375 2.1875 -12.4375 2.1875 C-12.4375 45.0875 -12.4375 87.9875 -12.4375 132.1875 C-12.7675 132.1875 -13.0975 132.1875 -13.4375 132.1875 C-13.46082863 115.12449413 -13.47847899 98.06149322 -13.48931217 80.99847507 C-13.49447521 73.07637055 -13.50151805 65.15427591 -13.51293945 57.23217773 C-13.52288606 50.32975363 -13.52935337 43.42733669 -13.53158849 36.52490562 C-13.53289564 32.86789339 -13.53598174 29.21090164 -13.54323006 25.55389595 C-13.55124348 21.47805994 -13.55149115 17.40225987 -13.55102539 13.32641602 C-13.55462067 12.10506454 -13.55821594 10.88371307 -13.56192017 9.62535095 C-13.5605455 8.52172211 -13.55917084 7.41809326 -13.55775452 6.28102112 C-13.55867631 5.31590386 -13.5595981 4.35078661 -13.56054783 3.35642338 C-13.24118995 -2.2727923 -4.23602099 0.00232365 0 0 Z " fill="#F8FEFE" transform="translate(735.4375,539.8125)"/>
<path d="M0 0 C10.93390623 -0.57323392 10.93390623 -0.57323392 15 3 C19.65783056 9.26397903 18 17.47906248 18 25 C17.67 25 17.34 25 17 25 C16.67 23.02 16.34 21.04 16 19 C16 21.97 16 24.94 16 28 C15.34 28.33 14.68 28.66 14 29 C14.12375 30.1446875 14.12375 30.1446875 14.25 31.3125 C14 34 14 34 12.3046875 35.65234375 C9.58389108 37.24331793 8.00074681 37.34330588 4.875 37.25 C4.00617187 37.23453125 3.13734375 37.2190625 2.2421875 37.203125 C0 37 0 37 -2 36 C-2 35.01 -2 34.02 -2 33 C-0.948125 33.061875 0.10375 33.12375 1.1875 33.1875 C5.27983783 32.98623748 6.88610291 32.59491424 10 30 C13.58195496 24.93585679 13.6386321 19.97024251 13 14 C12.54766 10.34234341 12.54766 10.34234341 10 8 C5.97754783 6.98719373 2.13097266 6.59522013 -2 7 C-4.34496779 8.3822424 -4.34496779 8.3822424 -6 10 C-5.52707473 5.7436726 -2.9968007 3.84311861 0 1 C0 0.67 0 0.34 0 0 Z " fill="#1D222E" transform="translate(684,782)"/>
<path d="M0 0 C7.92 0 15.84 0 24 0 C24.02269879 7.51993316 24.04100004 15.03985333 24.05181217 22.55981255 C24.05700453 26.05258342 24.06403495 29.54532939 24.07543945 33.03808594 C24.08850225 37.06445539 24.09325834 41.09079918 24.09765625 45.1171875 C24.10281754 46.35612762 24.10797882 47.59506775 24.11329651 48.87155151 C24.11372999 55.64646764 23.85189512 62.27624076 23 69 C22.67 69 22.34 69 22 69 C22 46.89 22 24.78 22 2 C15.07 2 8.14 2 1 2 C1 29.06 1 56.12 1 84 C0.67 84 0.34 84 0 84 C0 56.28 0 28.56 0 0 Z " fill="#07090D" transform="translate(601,580)"/>
<path d="M0 0 C2.64 0 5.28 0 8 0 C8.84268087 3.39358344 9.67247901 6.79019085 10.5 10.1875 C10.73847656 11.14720703 10.97695312 12.10691406 11.22265625 13.09570312 C11.56103516 14.49272461 11.56103516 14.49272461 11.90625 15.91796875 C12.11572266 16.77156982 12.32519531 17.6251709 12.54101562 18.50463867 C13.01093734 21.05946307 13.08117627 23.40844759 13 26 C11.02 26.99 11.02 26.99 9 28 C9.33 30.31 9.66 32.62 10 35 C11.98 35 13.96 35 16 35 C16.12375 33.741875 16.2475 32.48375 16.375 31.1875 C16.69868059 27.89674737 17.06604999 26.90092502 19 24 C18.85769192 25.41702513 18.71099254 26.8336096 18.5625 28.25 C18.48128906 29.03890625 18.40007812 29.8278125 18.31640625 30.640625 C18.02365007 32.82364639 17.57935581 34.8773182 17 37 C14.36 37 11.72 37 9 37 C7.71519002 32.05287412 6.43352133 27.10494933 5.15478516 22.15625 C4.71912983 20.47210593 4.28260974 18.78818531 3.84521484 17.10449219 C3.21746159 14.68742865 2.59280029 12.26958435 1.96875 9.8515625 C1.77188599 9.0963028 1.57502197 8.34104309 1.37219238 7.56289673 C0 2.22774341 0 2.22774341 0 0 Z " fill="#151821" transform="translate(241,783)"/>
<path d="M0 0 C0.99 0 1.98 0 3 0 C3.02312079 13.28187409 3.04091374 26.56374343 3.05181217 39.84563351 C3.05704158 46.0122492 3.06414027 52.17885118 3.07543945 58.34545898 C3.08626629 64.29116006 3.0922764 70.23684789 3.09487724 76.18255806 C3.09673186 78.45646943 3.10035317 80.73038004 3.10573006 83.00428581 C3.11293778 86.1772712 3.11399106 89.35020117 3.11352539 92.52319336 C3.11712067 93.47337341 3.12071594 94.42355347 3.12442017 95.40252686 C3.11405216 101.88594784 3.11405216 101.88594784 2 103 C1.76298761 105.85877909 1.57780818 108.69883297 1.4375 111.5625 C1.39431641 112.36880859 1.35113281 113.17511719 1.30664062 114.00585938 C1.20024738 116.00368805 1.09959112 118.0018207 1 120 C0.67 120 0.34 120 0 120 C0 80.4 0 40.8 0 0 Z " fill="#272C3A" transform="translate(362,372)"/>
<path d="M0 0 C8.25 0 16.5 0 25 0 C25.04583922 6.79948371 25.08568637 13.59843427 25.10986328 20.39794922 C25.11993892 22.71242079 25.13359975 25.02687959 25.15087891 27.34130859 C25.17505865 30.66246693 25.1864673 33.9834574 25.1953125 37.3046875 C25.20563507 38.34430634 25.21595764 39.38392517 25.22659302 40.45504761 C25.22674408 41.41589264 25.22689514 42.37673767 25.22705078 43.36669922 C25.231492 44.21497284 25.23593323 45.06324646 25.24050903 45.93722534 C25 48 25 48 23 50 C23 34.16 23 18.32 23 2 C16.07 2 9.14 2 2 2 C2 17.18 2 32.36 2 48 C1.67 48 1.34 48 1 48 C-0.09507419 42.7027207 -0.12893641 37.6066883 -0.09765625 32.2265625 C-0.0962413 31.3028183 -0.09482635 30.3790741 -0.09336853 29.42733765 C-0.08779609 26.49319138 -0.07524869 23.55912299 -0.0625 20.625 C-0.05748144 18.62890736 -0.05291915 16.63281351 -0.04882812 14.63671875 C-0.03868897 9.75775876 -0.01910822 4.87896599 0 0 Z " fill="#000108" transform="translate(219,542)"/>
<path d="M0 0 C2.31 0 4.62 0 7 0 C7 6.6 7 13.2 7 20 C6.67 20 6.34 20 6 20 C6 14.06 6 8.12 6 2 C4.35 2 2.7 2 1 2 C1 18.17 1 34.34 1 51 C2.2502285 49.97862121 2.2502285 49.97862121 2.0625 47.8203125 C2.02095404 46.02864303 1.97928808 44.23697634 1.9375 42.4453125 C2 40 2 40 3 37 C3.66 37 4.32 37 5 37 C5.33 37.99 5.66 38.98 6 40 C5.96519531 39.19175781 5.93039062 38.38351562 5.89453125 37.55078125 C5.86746094 36.48214844 5.84039062 35.41351562 5.8125 34.3125 C5.77769531 33.25675781 5.74289062 32.20101562 5.70703125 31.11328125 C6.03333385 27.64577232 7.00969875 25.81567552 9 23 C9.33 23.66 9.66 24.32 10 25 C9.3389651 26.33613438 8.67151071 27.66909971 8 29 C7.14677951 34.99470502 8.14043009 39.72079401 11 45 C13.40545638 46.20272819 14.94996953 46.10071472 17.625 46.0625 C18.85089844 46.04896484 18.85089844 46.04896484 20.1015625 46.03515625 C20.72804688 46.02355469 21.35453125 46.01195312 22 46 C20.76171875 47.51953125 20.76171875 47.51953125 19 49 C16.21464152 49.10118893 13.76464243 48.49854208 11 48 C11.66 49.32 12.32 50.64 13 52 C11.0625 51.625 11.0625 51.625 9 51 C8.67 50.34 8.34 49.68 8 49 C7.67 50.32 7.34 51.64 7 53 C4.69 53 2.38 53 0 53 C0 35.51 0 18.02 0 0 Z " fill="#0B0D14" transform="translate(335,767)"/>
<path d="M0 0 C0.66 0.33 1.32 0.66 2 1 C0.95833333 2.69270833 -0.08333333 4.38541667 -1.125 6.078125 C-2.27624023 8.25479385 -2.27624023 8.25479385 -2 12 C-1.34 12 -0.68 12 0 12 C0.33 15.3 0.66 18.6 1 22 C0.96519531 21.19175781 0.93039062 20.38351562 0.89453125 19.55078125 C0.86746094 18.48214844 0.84039062 17.41351562 0.8125 16.3125 C0.77769531 15.25675781 0.74289062 14.20101562 0.70703125 13.11328125 C1.03333385 9.64577232 2.00969875 7.81567552 4 5 C4.66 5.33 5.32 5.66 6 6 C5.505 6.804375 5.01 7.60875 4.5 8.4375 C2.11693847 14.09727113 2.13187694 18.7902322 4.375 24.5 C5.75861732 27.09022556 5.75861732 27.09022556 8 28 C9.54023996 28.06950541 11.08334988 28.08452357 12.625 28.0625 C13.44226563 28.05347656 14.25953125 28.04445313 15.1015625 28.03515625 C15.72804688 28.02355469 16.35453125 28.01195312 17 28 C15.76171875 29.51953125 15.76171875 29.51953125 14 31 C11.21464152 31.10118893 8.76464243 30.49854208 6 30 C6.94875 30.309375 7.8975 30.61875 8.875 30.9375 C12 32 12 32 14 33 C16.60931266 32.10636395 16.60931266 32.10636395 19 31 C17.44527697 33.51186522 16.58388725 34.80704587 13.73046875 35.75 C9.30159394 36.18540398 6.71640804 36.3449372 2.625 34.375 C-2.68855688 29.56749615 -4.69256843 26.28630554 -5.203125 19.16796875 C-5.30520013 12.67769179 -4.82754667 7.87259693 -2 2 C-1.34 1.34 -0.68 0.68 0 0 Z " fill="#0F131B" transform="translate(419,785)"/>
<path d="M0 0 C0 15.51 0 31.02 0 47 C3.96 47 7.92 47 12 47 C12 48.98 12 50.96 12 53 C1.44 53 -9.12 53 -20 53 C-19.67 51.68 -19.34 50.36 -19 49 C-19 49.66 -19 50.32 -19 51 C-9.43 51 0.14 51 10 51 C10 50.01 10 49.02 10 48 C9.21753906 48.01160156 8.43507813 48.02320313 7.62890625 48.03515625 C6.61699219 48.04417969 5.60507812 48.05320312 4.5625 48.0625 C3.55316406 48.07410156 2.54382813 48.08570313 1.50390625 48.09765625 C-1 48 -1 48 -2 47 C-2.0928726 45.58774954 -2.11746772 44.17091066 -2.11352539 42.75561523 C-2.11344986 41.85475693 -2.11337433 40.95389862 -2.11329651 40.02574158 C-2.10813522 39.04658279 -2.10297394 38.06742401 -2.09765625 37.05859375 C-2.0962413 36.06118668 -2.09482635 35.0637796 -2.09336853 34.03614807 C-2.08775114 30.83656876 -2.07519571 27.63705831 -2.0625 24.4375 C-2.05748724 22.27408955 -2.05292395 20.11067801 -2.04882812 17.94726562 C-2.03777606 12.63148371 -2.02049979 7.31575354 -2 2 C-7.61 2 -13.22 2 -19 2 C-16 0 -16 0 0 0 Z " fill="#181B23" transform="translate(608,767)"/>
<path d="M0 0 C2.64 0 5.28 0 8 0 C7.67 1.32 7.34 2.64 7 4 C6.01 3.67 5.02 3.34 4 3 C3.67 18.18 3.34 33.36 3 49 C3.99 49 4.98 49 6 49 C6 43.72 6 38.44 6 33 C6.66 33 7.32 33 8 33 C8 38.94 8 44.88 8 51 C5.36 51 2.72 51 0 51 C0 34.17 0 17.34 0 0 Z " fill="#22252D" transform="translate(670,783)"/>
<path d="M0 0 C2.64 0 5.28 0 8 0 C8 17.49 8 34.98 8 53 C7.34 53 6.68 53 6 53 C6 52.34 6 51.68 6 51 C4.35 51 2.7 51 1 51 C2.98 50.505 2.98 50.505 5 50 C5 34.49 5 18.98 5 3 C4.01 3 3.02 3 2 3 C2 8.28 2 13.56 2 19 C1.34 19.33 0.68 19.66 0 20 C0 13.4 0 6.8 0 0 Z " fill="#292D38" transform="translate(440,767)"/>
<path d="M0 0 C0.99 1.32 1.98 2.64 3 4 C3.66 3.34 4.32 2.68 5 2 C5.59361328 2.97453125 5.59361328 2.97453125 6.19921875 3.96875 C7.81719256 6.18757653 7.81719256 6.18757653 10.26953125 6.53125 C16.26822358 6.45753335 18.97691881 5.42482809 24 2 C27.375 2.75 27.375 2.75 30 4 C28.43795274 8.21752761 25.54865748 10.37399346 22 13 C17.23817005 15.06345964 11.59017634 14.56123871 6.8125 12.875 C3.27233187 10.51488791 1.35342833 8.56580049 -1 5 C-0.8125 2.125 -0.8125 2.125 0 0 Z " fill="#12151E" transform="translate(293,807)"/>
<path d="M0 0 C29.04 0 58.08 0 88 0 C87.34 1.32 86.68 2.64 86 4 C85.505 3.01 85.505 3.01 85 2 C57.28 2 29.56 2 1 2 C0.01 4.97 -0.98 7.94 -2 11 C-3.6875 13.5625 -3.6875 13.5625 -5 15 C-4.39083731 9.0606638 -2.65098906 5.96472537 0 0 Z " fill="#02040B" transform="translate(497,174)"/>
<path d="M0 0 C7.92 0 15.84 0 24 0 C24.02299093 6.15645977 24.04289412 12.31276975 24.05493164 18.46923828 C24.05995146 20.56234238 24.06676868 22.65544299 24.07543945 24.74853516 C24.08760805 27.76205305 24.09325191 30.77552446 24.09765625 33.7890625 C24.10281754 34.72054108 24.10797882 35.65201965 24.11329651 36.61172485 C24.1136895 41.19282409 23.94262248 45.49237276 23 50 C22.67 50 22.34 50 22 50 C22 34.16 22 18.32 22 2 C15.07 2 8.14 2 1 2 C1 20.15 1 38.3 1 57 C0.67 57 0.34 57 0 57 C0 38.19 0 19.38 0 0 Z " fill="#000107" transform="translate(724,542)"/>
<path d="M0 0 C3 3 3 3 3.36076355 5.37284851 C3.35410172 6.30772598 3.34743988 7.24260345 3.34057617 8.20581055 C3.34034958 9.26668381 3.34012299 10.32755707 3.33988953 11.420578 C3.32440567 12.56440445 3.30892181 13.7082309 3.29296875 14.88671875 C3.28872391 16.05886429 3.28447906 17.23100983 3.28010559 18.43867493 C3.26329072 22.18851534 3.22563232 25.93782157 3.1875 29.6875 C3.17245684 32.22720579 3.1587678 34.76691999 3.14648438 37.30664062 C3.11592786 43.53813261 3.0572089 49.76846721 3 56 C-5.25 56 -13.5 56 -22 56 C-22 53.69 -22 51.38 -22 49 C-21.67 50.32 -21.34 51.64 -21 53 C-14.07 53 -7.14 53 0 53 C0 35.51 0 18.02 0 0 Z " fill="#232731" transform="translate(517,615)"/>
<path d="M0 0 C0.33 0 0.66 0 1 0 C1.09796875 0.94101562 1.1959375 1.88203125 1.296875 2.8515625 C2.17842571 12.26093426 2.17842571 12.26093426 7 20 C9.9254644 20.2236068 9.9254644 20.2236068 12 19 C10.68 18.01 9.36 17.02 8 16 C8.33 15.34 8.66 14.68 9 14 C9.495 14.495 9.99 14.99 10.5 15.5 C13.92957831 17.55774699 17.14133365 17.75008143 21 17 C21.86625 16.29875 22.7325 15.5975 23.625 14.875 C24.40875 14.25625 25.1925 13.6375 26 13 C29.3125 13.75 29.3125 13.75 32 15 C30.64231796 19.88765533 28.32965579 21.52591098 24 24 C19.22314057 25.59228648 14.54157771 25.99433654 9.7734375 24.12890625 C5.88114465 21.90578019 2.68444614 19.33252771 0.609375 15.24609375 C-0.73392569 10.29482519 -0.27491859 5.07835729 0 0 Z " fill="#0E1018" transform="translate(545,796)"/>
<path d="M0 0 C-0.55429687 0.31453125 -1.10859375 0.6290625 -1.6796875 0.953125 C-2.76636719 1.59507812 -2.76636719 1.59507812 -3.875 2.25 C-4.59429688 2.66765625 -5.31359375 3.0853125 -6.0546875 3.515625 C-8.38064937 5.29045534 -9.10641975 6.20756173 -10 9 C-10.13997227 11.78824758 -10.1888913 14.46827116 -10.125 17.25 C-10.11146484 18.36761719 -10.11146484 18.36761719 -10.09765625 19.5078125 C-10.07418358 21.33868059 -10.03831525 23.16938238 -10 25 C-9.01 25.33 -8.02 25.66 -7 26 C-7 20.72 -7 15.44 -7 10 C-6.34 9.67 -5.68 9.34 -5 9 C-5.03480469 9.86882813 -5.06960938 10.73765625 -5.10546875 11.6328125 C-5.4851165 20.28298129 -5.4851165 20.28298129 -2 28 C0.80915474 29.40457737 2.88810534 29.24895157 6 29 C9.65992073 27.06837517 10.74425659 24.87187551 12 21 C12.8125 22.625 12.8125 22.625 13 25 C10.42143673 28.68366181 8.3124594 31.40279281 4 33 C4 33.33 4 33.66 4 34 C2.35 34 0.7 34 -1 34 C-1 34.66 -1 35.32 -1 36 C-5.97003138 34.75749216 -8.20013733 33.2997891 -11 29 C-13.93374225 22.92069295 -13.73803372 16.60502902 -13 10 C-10.74063783 4.04104479 -6.84247845 -2.03425035 0 0 Z " fill="#11131C" transform="translate(640,784)"/>
<path d="M0 0 C2.07625241 1.31495986 3.25145029 2.57545841 4.6875 4.5625 C5.12707031 5.14773438 5.56664062 5.73296875 6.01953125 6.3359375 C6.875 8.1875 6.875 8.1875 6.60546875 10.3046875 C5.74483782 12.52299825 4.69219744 13.6731688 2.875 15.1875 C2.545 15.1875 2.215 15.1875 1.875 15.1875 C1.58625 14.053125 1.2975 12.91875 1 11.75 C0.62875 10.574375 0.2575 9.39875 -0.125 8.1875 C-2.45095946 7.02452027 -3.91223231 7.02149309 -6.5 7 C-7.27085937 6.98582031 -8.04171875 6.97164062 -8.8359375 6.95703125 C-11.34334888 7.20948393 -12.95761902 7.93556533 -15.125 9.1875 C-15.455 8.5275 -15.785 7.8675 -16.125 7.1875 C-17.115 6.8575 -18.105 6.5275 -19.125 6.1875 C-19.125 5.1975 -19.125 4.2075 -19.125 3.1875 C-13.20514352 -0.93066103 -7.02725344 -2.68689102 0 0 Z " fill="#1B1F2A" transform="translate(568.125,782.8125)"/>
<path d="M0 0 C3 1.4375 3 1.4375 5 3 C5.5775 3.391875 6.155 3.78375 6.75 4.1875 C8.82069194 7.19000331 8.7054601 10.4066132 9 14 C7.25372522 11.38058783 6.61277612 9.96175123 6 7 C5.01 7 4.02 7 3 7 C2.443125 6.835 1.88625 6.67 1.3125 6.5 C-2.15198863 5.75092138 -5.48098442 5.47033374 -9 6 C-11.39628155 7.64619349 -11.39628155 7.64619349 -13 10 C-13.5775 10.7425 -14.155 11.485 -14.75 12.25 C-15.1625 12.8275 -15.575 13.405 -16 14 C-15.67 12.02 -15.34 10.04 -15 8 C-16.94999129 8.19471111 -16.94999129 8.19471111 -19 9 C-20.28436734 10.9837767 -20.28436734 10.9837767 -21 13 C-21.4505519 9.92122867 -21.50042912 7.78989302 -19.8046875 5.11328125 C-13.54522941 -2.38863209 -9.27168621 -2.4797972 0 0 Z " fill="#191C27" transform="translate(480,784)"/>
<path d="M0 0 C0.33 0.66 0.66 1.32 1 2 C0.67 2.99 0.34 3.98 0 5 C-0.11643579 6.88591396 -0.17663461 8.77550782 -0.20532227 10.66479492 C-0.22526749 11.82577194 -0.24521271 12.98674896 -0.26576233 14.1829071 C-0.29083107 16.06270012 -0.29083107 16.06270012 -0.31640625 17.98046875 C-0.33718735 19.26359451 -0.35796844 20.54672028 -0.37937927 21.86872864 C-0.43451906 25.27662815 -0.48396389 28.68458741 -0.53222656 32.09259033 C-0.58250079 35.57154648 -0.63815591 39.05041607 -0.69335938 42.52929688 C-0.80084191 49.3527911 -0.9018114 56.17636577 -1 63 C-9.25 63 -17.5 63 -26 63 C-26 62.34 -26 61.68 -26 61 C-18.41 61 -10.82 61 -3 61 C-3.03480469 57.266875 -3.06960937 53.53375 -3.10546875 49.6875 C-3.12889029 46.05681116 -3.14709215 42.42613086 -3.16479492 38.79541016 C-3.17984619 36.27942108 -3.20029181 33.76345808 -3.22631836 31.24755859 C-3.26286182 27.62330675 -3.27976353 23.999403 -3.29296875 20.375 C-3.30845261 19.25697998 -3.32393646 18.13895996 -3.33988953 16.98706055 C-3.34125634 10.59012721 -2.67727296 5.83009382 0 0 Z " fill="#0C0E16" transform="translate(245,609)"/>
<path d="M0 0 C0.91058531 3.07322544 1.08886184 5.80097361 1 9 C2.32 7.02 3.64 5.04 5 3 C5.33 4.32 5.66 5.64 6 7 C12.27 7 18.54 7 25 7 C25 7.33 25 7.66 25 8 C23.17662109 8.09087891 23.17662109 8.09087891 21.31640625 8.18359375 C19.73175772 8.26798332 18.14712298 8.3526321 16.5625 8.4375 C15.76005859 8.47681641 14.95761719 8.51613281 14.13085938 8.55664062 C10.24760439 8.4054296 10.24760439 8.4054296 7 10 C14.59 10.33 22.18 10.66 30 11 C28 13 28 13 25.75341797 13.22705078 C24.84221191 13.21657715 23.93100586 13.20610352 22.9921875 13.1953125 C22.00605469 13.18886719 21.01992188 13.18242188 20.00390625 13.17578125 C18.45509766 13.15064453 18.45509766 13.15064453 16.875 13.125 C15.83472656 13.11597656 14.79445313 13.10695313 13.72265625 13.09765625 C11.14820908 13.07403747 8.57421788 13.04110149 6 13 C6.45375 14.093125 6.9075 15.18625 7.375 16.3125 C7.63023437 16.92738281 7.88546875 17.54226563 8.1484375 18.17578125 C9.06806692 20.26533932 9.06806692 20.26533932 11 23 C10.401875 22.67 9.80375 22.34 9.1875 22 C6.94613529 20.79212012 6.94613529 20.79212012 4 21 C2.3125 19.5 2.3125 19.5 1 18 C0.34 18.33 -0.32 18.66 -1 19 C-1.02690104 16.20826945 -1.04679053 13.41679652 -1.0625 10.625 C-1.07087891 9.8309375 -1.07925781 9.036875 -1.08789062 8.21875 C-1.11328125 2.2265625 -1.11328125 2.2265625 0 0 Z " fill="#0D0F17" transform="translate(292,791)"/>
<path d="M0 0 C8.25 0 16.5 0 25 0 C25 3.63 25 7.26 25 11 C24.67 11 24.34 11 24 11 C24 8.03 24 5.06 24 2 C16.74 2 9.48 2 2 2 C2 29.06 2 56.12 2 84 C1.67 84 1.34 84 1 84 C0.86754788 76.1485387 0.73704977 68.29704736 0.60884857 60.44551563 C0.54922167 56.79723873 0.48899451 53.14897408 0.42724609 49.50073242 C0.14838939 32.99903343 -0.06104416 16.50481582 0 0 Z " fill="#030408" transform="translate(494,580)"/>
<path d="M0 0 C3.375 0.75 3.375 0.75 6 2 C4.18651505 6.61614351 0.96627445 8.93714895 -3.3125 11.25 C-8.50194643 12.69821761 -12.51474719 12.59410112 -17.4375 10.625 C-20 9 -20 9 -21 7 C-19.68 7.33 -18.36 7.66 -17 8 C-16.67 6.68 -16.34 5.36 -16 4 C-15.02160156 4.06960938 -15.02160156 4.06960938 -14.0234375 4.140625 C-7.80504308 4.39743185 -5.20537002 3.54911593 0 0 Z " fill="#1B1E28" transform="translate(485,809)"/>
<path d="M0 0 C5.23333571 1.7773593 7.975407 4.50893766 11 9 C10.8125 11.375 10.8125 11.375 10 13 C9.608125 12.0925 9.21625 11.185 8.8125 10.25 C6.9212628 6.85881606 5.1445327 5.20967163 2 3 C1.67 3.33 1.34 3.66 1 4 C-0.51928038 4.07179964 -2.04167482 4.08392007 -3.5625 4.0625 C-4.38878906 4.05347656 -5.21507812 4.04445313 -6.06640625 4.03515625 C-6.70449219 4.02355469 -7.34257813 4.01195312 -8 4 C-8 5.32 -8 6.64 -8 8 C-9.31200404 9.35432675 -10.64631404 10.68733482 -12 12 C-12.33 13.32 -12.66 14.64 -13 16 C-7.06 16 -1.12 16 5 16 C2.90099587 9.32183112 2.90099587 9.32183112 -0.04296875 7.66015625 C-0.75066406 7.46292969 -1.45835937 7.26570312 -2.1875 7.0625 C-3.445625 6.711875 -4.70375 6.36125 -6 6 C-6 5.67 -6 5.34 -6 5 C1.25409836 5.48360656 1.25409836 5.48360656 4.4375 7.6875 C6.33070548 10.48944412 6.77638301 12.64574518 7 16 C6 17 6 17 4.05053711 17.11352539 C3.2178833 17.10828857 2.38522949 17.10305176 1.52734375 17.09765625 C0.62822266 17.09443359 -0.27089844 17.09121094 -1.19726562 17.08789062 C-2.14279297 17.07951172 -3.08832031 17.07113281 -4.0625 17.0625 C-5.01189453 17.05798828 -5.96128906 17.05347656 -6.93945312 17.04882812 C-9.29303065 17.0370011 -11.64648477 17.02052025 -14 17 C-15.24674659 13.25976024 -14.76679965 10.83399823 -14 7 C-13.34 6.34 -12.68 5.68 -12 5 C-13.65 5.33 -15.3 5.66 -17 6 C-11.23079395 0.07897274 -8.14329968 -0.67756268 0 0 Z " fill="#0C0E15" transform="translate(734,782)"/>
<path d="M0 0 C2.05078125 0.03255208 4.1015625 0.06510417 6.15234375 0.09765625 C5.82234375 0.75765625 5.49234375 1.41765625 5.15234375 2.09765625 C3.17234375 2.09765625 1.19234375 2.09765625 -0.84765625 2.09765625 C-0.84765625 19.58765625 -0.84765625 37.07765625 -0.84765625 55.09765625 C4.10234375 54.60265625 4.10234375 54.60265625 9.15234375 54.09765625 C8.49234375 55.08765625 7.83234375 56.07765625 7.15234375 57.09765625 C5.0234375 57.42578125 5.0234375 57.42578125 2.58984375 57.34765625 C1.78417969 57.3321875 0.97851562 57.31671875 0.1484375 57.30078125 C-1.84765625 57.09765625 -1.84765625 57.09765625 -2.84765625 56.09765625 C-2.94647218 54.38446679 -2.97564594 52.66720822 -2.97705078 50.95117188 C-2.98177902 49.30441467 -2.98177902 49.30441467 -2.98660278 47.62438965 C-2.98457855 46.42963013 -2.98255432 45.23487061 -2.98046875 44.00390625 C-2.98142548 42.7869104 -2.9823822 41.56991455 -2.98336792 40.31604004 C-2.98404997 37.73689726 -2.98219397 35.15775278 -2.97802734 32.57861328 C-2.97267947 28.61486989 -2.97797154 24.65123983 -2.984375 20.6875 C-2.98371422 18.18880183 -2.98243307 15.69010373 -2.98046875 13.19140625 C-2.98249298 11.99664673 -2.98451721 10.80188721 -2.98660278 9.57092285 C-2.98345062 8.47308472 -2.98029846 7.37524658 -2.97705078 6.24414062 C-2.97625519 5.27230835 -2.97545959 4.30047607 -2.97463989 3.29919434 C-2.81705417 0.56710254 -2.74111204 0.14487907 0 0 Z " fill="#D3D8E1" transform="translate(335.84765625,764.90234375)"/>
<path d="M0 0 C2.5625 2.25 2.5625 2.25 4 5 C4 6.32 4 7.64 4 9 C-1.94 9 -7.88 9 -14 9 C-13 3 -13 3 -11.5 1.125 C-7.68403488 -0.5921843 -4.10339868 -0.81315056 0 0 Z " fill="#E7EDF6" transform="translate(735,789)"/>
<path d="M0 0 C3 2.25 3 2.25 5 5 C5 6.32 5 7.64 5 9 C-0.94 9 -6.88 9 -13 9 C-12 3 -12 3 -10.4375 1.125 C-6.94328627 -0.48771403 -3.72625243 -0.79690151 0 0 Z " fill="#EBF0F9" transform="translate(479,789)"/>
<path d="M0 0 C2.5625 1.6875 2.5625 1.6875 4 4 C4 5.65 4 7.3 4 9 C-1.94 9 -7.88 9 -14 9 C-12.29798738 0.48993692 -8.26407017 -1.50117972 0 0 Z " fill="#E4EAF4" transform="translate(312,789)"/>
<path d="M0 0 C2.5625 1.6875 2.5625 1.6875 4 4 C4 5.65 4 7.3 4 9 C-1.61 9 -7.22 9 -13 9 C-13 4 -13 4 -11.5625 1.6875 C-7.79507504 -0.79348717 -4.3858476 -0.79669525 0 0 Z " fill="#E9EEF7" transform="translate(566,789)"/>
<path d="M0 0 C0.33 0 0.66 0 1 0 C1 17.82 1 35.64 1 54 C7.6 54 14.2 54 21 54 C21.33 54.99 21.66 55.98 22 57 C14.08 57 6.16 57 -2 57 C-2 46.77 -2 36.54 -2 26 C-1.67 26 -1.34 26 -1 26 C-0.67 17.42 -0.34 8.84 0 0 Z " fill="#202531" transform="translate(559,614)"/>
<path d="M0 0 C0.33 0 0.66 0 1 0 C3.66565244 12.3944349 3.66565244 12.3944349 2.08984375 16.1953125 C0.75 17.75 0.75 17.75 -2 20 C-2.66 20.66 -3.32 21.32 -4 22 C-7.58144392 24.38762928 -10.78839634 24.16198476 -15 24 C-14.67 22.35 -14.34 20.7 -14 19 C-13.38511719 18.82984375 -12.77023437 18.6596875 -12.13671875 18.484375 C-11.32847656 18.24203125 -10.52023437 17.9996875 -9.6875 17.75 C-8.88699219 17.51796875 -8.08648438 17.2859375 -7.26171875 17.046875 C-4.49046356 15.76415239 -3.46345189 14.6719799 -2 12 C-1.71306562 9.47571539 -1.71306562 9.47571539 -1.9375 6.875 C-2.08984375 4.2421875 -2.08984375 4.2421875 -2 2 C-1.34 1.34 -0.68 0.68 0 0 Z " fill="#212531" transform="translate(654,797)"/>
<path d="M0 0 C0.33 0 0.66 0 1 0 C1.33 7.92 1.66 15.84 2 24 C-5.59 24 -13.18 24 -21 24 C-21 20.7 -21 17.4 -21 14 C-20.01 13.67 -19.02 13.34 -18 13 C-18 15.64 -18 18.28 -18 21 C-12.06 21 -6.12 21 0 21 C-0.33 20.01 -0.66 19.02 -1 18 C-1.02172852 16.00708008 -1.02172852 16.00708008 -0.87890625 13.76953125 C-0.83056641 12.96708984 -0.78222656 12.16464844 -0.73242188 11.33789062 C-0.67634766 10.50451172 -0.62027344 9.67113281 -0.5625 8.8125 C-0.51029297 7.96751953 -0.45808594 7.12253906 -0.40429688 6.25195312 C-0.27476311 4.16763701 -0.13806823 2.08376818 0 0 Z " fill="#232732" transform="translate(401,648)"/>
<path d="M0 0 C1.65 0.33 3.3 0.66 5 1 C5.33 1.99 5.66 2.98 6 4 C4.42840386 6.96185426 3.70482353 8.1670225 1 10 C-3.29980061 11.10744562 -7.58091929 11.624734 -12 12 C-12.66 10.35 -13.32 8.7 -14 7 C-12 6 -12 6 -8.5 6.5625 C-7.345 6.706875 -6.19 6.85125 -5 7 C-2.84365964 4.84365964 -1.52206009 2.62901288 0 0 Z " fill="#1F232F" transform="translate(359,808)"/>
<path d="M0 0 C0.99 1.32 1.98 2.64 3 4 C3.66 3.34 4.32 2.68 5 2 C5.5878125 3.4540625 5.5878125 3.4540625 6.1875 4.9375 C7.67594887 8.22176391 7.67594887 8.22176391 10.6875 8.875 C11.8321875 8.936875 11.8321875 8.936875 13 9 C14.125 13.75 14.125 13.75 13 16 C10.36 16 7.72 16 5 16 C4.1605118 13.89828133 3.32860344 11.79353375 2.5 9.6875 C2.0359375 8.51574219 1.571875 7.34398437 1.09375 6.13671875 C0 3 0 3 0 0 Z " fill="#202532" transform="translate(509,802)"/>
<path d="M0 0 C1.6874269 0.00015917 3.37485866 0.00585622 5.06225586 0.01586914 C6.39189613 0.01799156 6.39189613 0.01799156 7.74839783 0.02015686 C10.59133215 0.02577324 13.43418892 0.03832848 16.27709961 0.05102539 C18.19962452 0.05603828 20.12215065 0.06060155 22.04467773 0.06469727 C26.7680151 0.07574798 31.49129419 0.09302356 36.21459961 0.11352539 C36.70959961 1.59852539 36.70959961 1.59852539 37.21459961 3.11352539 C16.91959961 2.61852539 16.91959961 2.61852539 -3.78540039 2.11352539 C-3.78540039 4.75352539 -3.78540039 7.39352539 -3.78540039 10.11352539 C-4.11540039 10.11352539 -4.44540039 10.11352539 -4.78540039 10.11352539 C-4.81229255 8.63445647 -4.83174661 7.15525056 -4.84790039 5.67602539 C-4.85950195 4.85231445 -4.87110352 4.02860352 -4.88305664 3.17993164 C-4.7086507 -0.51049808 -3.86308792 0.11585526 0 0 Z " fill="#F8FDFF" transform="translate(369.785400390625,369.886474609375)"/>
<path d="M0 0 C1.65 0 3.3 0 5 0 C5 0.33 5 0.66 5 1 C11.93 1.495 11.93 1.495 19 2 C19 16.85 19 31.7 19 47 C18.67 47 18.34 47 18 47 C18 32.48 18 17.96 18 3 C16.02 3.33 14.04 3.66 12 4 C10.20932194 4.06305204 8.41662421 4.08671114 6.625 4.0625 C5.31402344 4.04896484 5.31402344 4.04896484 3.9765625 4.03515625 C2.99816406 4.01775391 2.99816406 4.01775391 2 4 C2 4.66 2 5.32 2 6 C1.34 6 0.68 6 0 6 C0 4.02 0 2.04 0 0 Z " fill="#282D38" transform="translate(587,767)"/>
<path d="M0 0 C6.11774896 -0.49940808 9.02495953 0.75099398 14 4 C13.835 4.928125 13.67 5.85625 13.5 6.8125 C12.76299718 11.85733621 12.91723185 16.91435711 13 22 C12.67 22 12.34 22 12 22 C11.81824219 21.25234375 11.63648438 20.5046875 11.44921875 19.734375 C11.19785156 18.74953125 10.94648437 17.7646875 10.6875 16.75 C10.32205078 15.28820312 10.32205078 15.28820312 9.94921875 13.796875 C8.99987855 10.99964214 7.78410375 9.31122531 6 7 C6.3125 4.75 6.3125 4.75 7 3 C5.02 3 3.04 3 1 3 C0.67 2.01 0.34 1.02 0 0 Z " fill="#131721" transform="translate(641,782)"/>
<path d="M0 0 C-0.33 15.51 -0.66 31.02 -1 47 C-1.33 47 -1.66 47 -2 47 C-2 32.15 -2 17.3 -2 2 C-7.61 2 -13.22 2 -19 2 C-16 0 -16 0 0 0 Z " fill="#000105" transform="translate(608,767)"/>
<path d="M0 0 C0.70189453 0.00451172 1.40378906 0.00902344 2.12695312 0.01367188 C3.85550538 0.02543073 5.58401365 0.04336546 7.3125 0.0625 C6.9825 0.7225 6.6525 1.3825 6.3125 2.0625 C6.22849471 3.65697464 6.20522533 5.25490545 6.21484375 6.8515625 C6.21967773 8.26308594 6.21967773 8.26308594 6.22460938 9.703125 C6.23298828 10.68796875 6.24136719 11.6728125 6.25 12.6875 C6.25451172 13.68007813 6.25902344 14.67265625 6.26367188 15.6953125 C6.27547839 18.15106722 6.29341418 20.60679106 6.3125 23.0625 C3.0125 23.0625 -0.2875 23.0625 -3.6875 23.0625 C-3.6875 22.7325 -3.6875 22.4025 -3.6875 22.0625 C-0.7175 22.0625 2.2525 22.0625 5.3125 22.0625 C5.3125 15.7925 5.3125 9.5225 5.3125 3.0625 C-4.24014307 2.91278074 -4.24014307 2.91278074 -13.6875 4.0625 C-9.67101983 -0.33650209 -5.64545497 -0.0685256 0 0 Z " fill="#2A2E39" transform="translate(473.6875,577.9375)"/>
<path d="M0 0 C1.65 0 3.3 0 5 0 C4.69055299 2.58373234 4.37756043 5.16695133 4.0625 7.75 C3.93198242 8.84441406 3.93198242 8.84441406 3.79882812 9.9609375 C3.37972591 13.37584442 2.882726 16.67603543 2 20 C1.34 20 0.68 20 0 20 C-1.33257403 6.3667426 -1.33257403 6.3667426 0 0 Z " fill="#202431" transform="translate(276,784)"/>
<path d="M0 0 C2.125 0.375 2.125 0.375 4 1 C4 2.32 4 3.64 4 5 C-1.93891422 7.5915262 -6.54107286 8.40368295 -13 8 C-10.7645245 4.64678674 -10.18146989 4.48337213 -6.5 3.4375 C-2.87446756 2.40659345 -2.87446756 2.40659345 0 0 Z " fill="#222632" transform="translate(571,811)"/>
<path d="M0 0 C6.02339107 0.23621141 6.02339107 0.23621141 8.61328125 2.26171875 C10.59272258 4.4753475 12 6.14437411 12 9.1875 C10.90492256 11.17232786 9.70630634 12.51625536 8 14 C6.85110867 10.06094403 6.47417305 6.06434042 6 2 C5.67 2.66 5.34 3.32 5 4 C1.7 3.67 -1.6 3.34 -5 3 C-5 2.67 -5 2.34 -5 2 C-3.35 1.67 -1.7 1.34 0 1 C0 0.67 0 0.34 0 0 Z " fill="#242935" transform="translate(563,784)"/>
<path d="M0 0 C10.68430493 -0.76681614 10.68430493 -0.76681614 13.91015625 1.11328125 C15.25 2.5 15.25 2.5 17 5 C16.01 6.485 16.01 6.485 15 8 C14.5875 7.525625 14.175 7.05125 13.75 6.5625 C11.817815 4.83733482 10.51807725 4.43415125 8 4 C8 4.33 8 4.66 8 5 C5.69 5 3.38 5 1 5 C1.33 4.01 1.66 3.02 2 2 C1.34 1.34 0.68 0.68 0 0 Z " fill="#252937" transform="translate(724,784)"/>
<path d="M0 0 C4 4.75 4 4.75 4 7 C3.34 7 2.68 7 2 7 C2 7.66 2 8.32 2 9 C2.66 9.33 3.32 9.66 4 10 C1.69 9.67 -0.62 9.34 -3 9 C-5.125 4.375 -5.125 4.375 -4 1 C-2.02 1.495 -2.02 1.495 0 2 C0 1.34 0 0.68 0 0 Z " fill="#212532" transform="translate(466,808)"/>
<path d="M0 0 C-0.99 1.485 -0.99 1.485 -2 3 C-2.39013716 4.9896995 -2.73202649 6.99019869 -3 9 C-3.99 9 -4.98 9 -6 9 C-6.33 12.63 -6.66 16.26 -7 20 C-7.33 20 -7.66 20 -8 20 C-8.0272616 17.95840905 -8.04651345 15.91671037 -8.0625 13.875 C-8.07410156 12.73804688 -8.08570313 11.60109375 -8.09765625 10.4296875 C-8.00468065 7.16438441 -7.73369639 4.18246652 -7 1 C-4.1587258 -1.17831022 -3.46754708 -1.15584903 0 0 Z " fill="#202531" transform="translate(723,787)"/>
<path d="M0 0 C0.66 0.33 1.32 0.66 2 1 C2 7.27 2 13.54 2 20 C0 18 0 18 -0.1953125 15.3984375 C-0.17210937 14.40070312 -0.14890625 13.40296875 -0.125 12.375 C-0.10695313 11.37210938 -0.08890625 10.36921875 -0.0703125 9.3359375 C-0.04710937 8.56507813 -0.02390625 7.79421875 0 7 C-0.66 7 -1.32 7 -2 7 C-2 10.96 -2 14.92 -2 19 C-2.33 19 -2.66 19 -3 19 C-3 13.72 -3 8.44 -3 3 C-2.34 3 -1.68 3 -1 3 C-0.67 2.01 -0.34 1.02 0 0 Z " fill="#222634" transform="translate(419,790)"/>
<path d="M0 0 C1.231394 3.69418201 0.64432764 6.2056261 0 10 C-0.33 9.34 -0.66 8.68 -1 8 C-1.845625 8.495 -2.69125 8.99 -3.5625 9.5 C-7.33796832 11.14747708 -9.92817548 11.24430947 -14 11 C-13.67 10.34 -13.34 9.68 -13 9 C-13.99 8.01 -14.98 7.02 -16 6 C-15.40832031 6.09539063 -14.81664062 6.19078125 -14.20703125 6.2890625 C-7.83830098 7.2852503 -7.83830098 7.2852503 -2 5 C-0.63921965 2.47627099 -0.63921965 2.47627099 0 0 Z " fill="#252936" transform="translate(440,808)"/>
<path d="M0 0 C1.125 3.75 1.125 3.75 0 6 C-0.07092842 8.2072923 -0.08415025 10.41667452 -0.0625 12.625 C-0.05347656 13.81351563 -0.04445313 15.00203125 -0.03515625 16.2265625 C-0.02355469 17.14179687 -0.01195312 18.05703125 0 19 C-0.61875 18.814375 -1.2375 18.62875 -1.875 18.4375 C-4.04160178 17.76313824 -4.04160178 17.76313824 -6 19 C-5.22097117 14.97501771 -4.32211756 10.98291935 -3.40234375 6.98828125 C-2.9338875 5.01138565 -2.9338875 5.01138565 -3 3 C-2.01 3 -1.02 3 0 3 C0 2.01 0 1.02 0 0 Z " fill="#212431" transform="translate(527,791)"/>
<path d="M0 0 C6.08025644 -0.84650277 12.35325804 -0.50966309 18 2 C18 2.33 18 2.66 18 3 C11.4 3 4.8 3 -2 3 C-1.34 2.01 -0.68 1.02 0 0 Z " fill="#1F2431" transform="translate(468,799)"/>
<path d="M0 0 C0.99 1.32 1.98 2.64 3 4 C3.66 3.34 4.32 2.68 5 2 C5.433125 2.66 5.86625 3.32 6.3125 4 C7.1478125 4.99 7.1478125 4.99 8 6 C8.99 6 9.98 6 11 6 C10.67 7.65 10.34 9.3 10 11 C6.10994871 10.77771136 5.01244362 10.01244362 2.1875 7.1875 C0 4 0 4 0 0 Z " fill="#212532" transform="translate(293,807)"/>
<path d="M0 0 C0.66 0 1.32 0 2 0 C2.68853935 12.89098663 2.68853935 12.89098663 0.25 16.625 C-1.7283211 18.71322782 -3.58317316 20.4463256 -6 22 C-6.66 21.67 -7.32 21.34 -8 21 C-6.5459375 19.9790625 -6.5459375 19.9790625 -5.0625 18.9375 C-2.4887608 16.78063405 -2.0433883 16.17355318 -1.1875 12.75 C-1.125625 11.5125 -1.06375 10.275 -1 9 C-0.82139723 7.3531774 -0.63374154 5.70731393 -0.4375 4.0625 C-0.29056661 2.70845225 -0.14433868 1.35432679 0 0 Z " fill="#11131A" transform="translate(657,797)"/>
<path d="M0 0 C2.46800047 1.15173355 4.04783565 2.04783565 6 4 C6 5.65 6 7.3 6 9 C0.39 8.67 -5.22 8.34 -11 8 C-11 7.67 -11 7.34 -11 7 C-6.71 6.34 -2.42 5.68 2 5 C2 4.01 2 3.02 2 2 C1.34 2 0.68 2 0 2 C0 1.34 0 0.68 0 0 Z " fill="#EFF4FB" transform="translate(310,789)"/>
<path d="M0 0 C0.99 0 1.98 0 3 0 C3.33 0.66 3.66 1.32 4 2 C7.02934491 2.65772428 7.02934491 2.65772428 10 3 C10 4.32 10 5.64 10 7 C7.66705225 7.04241723 5.33297433 7.04092937 3 7 C2.67 6.67 2.34 6.34 2 6 C0.67405895 5.63837971 -0.65938457 5.30271961 -2 5 C-1.34 3.35 -0.68 1.7 0 0 Z " fill="#1E2330" transform="translate(638,782)"/>
<path d="M0 0 C1.48773574 2.7834801 2.49255578 5.42532905 3.2890625 8.4765625 C3.50820312 9.311875 3.72734375 10.1471875 3.953125 11.0078125 C4.17484375 11.87148438 4.3965625 12.73515625 4.625 13.625 C4.85445312 14.49640625 5.08390625 15.3678125 5.3203125 16.265625 C7 22.72442336 7 22.72442336 7 25 C6.01 24.67 5.02 24.34 4 24 C3.18457031 21.89868164 3.18457031 21.89868164 2.578125 19.16015625 C2.35769531 18.17982422 2.13726562 17.19949219 1.91015625 16.18945312 C1.69230469 15.15755859 1.47445312 14.12566406 1.25 13.0625 C1.01667969 12.03447266 0.78335938 11.00644531 0.54296875 9.94726562 C-1.13895268 2.27790535 -1.13895268 2.27790535 0 0 Z " fill="#EAF0F5" transform="translate(244,797)"/>
<path d="M0 0 C8.91 0 17.82 0 27 0 C23 4 23 4 20.75756836 4.30224609 C19.95971924 4.21023926 19.16187012 4.11823242 18.33984375 4.0234375 C17.0259668 3.88228516 17.0259668 3.88228516 15.68554688 3.73828125 C14.77869141 3.61839844 13.87183594 3.49851562 12.9375 3.375 C12.02677734 3.27832031 11.11605469 3.18164062 10.17773438 3.08203125 C3.44763532 2.29842355 3.44763532 2.29842355 0 0 Z " fill="#232834" transform="translate(338,670)"/>
<path d="M0 0 C2.31 0 4.62 0 7 0 C7 0.99 7 1.98 7 3 C2.07262981 4.97094808 -1.78020872 5.1799928 -7 5 C-7.33 4.34 -7.66 3.68 -8 3 C-5.29120665 1.64560332 -2.99066732 1.93498549 0 2 C0 1.34 0 0.68 0 0 Z " fill="#232631" transform="translate(310,816)"/>
<path d="M0 0 C3.96 0.33 7.92 0.66 12 1 C9 3 9 3 5 3 C5 3.66 5 4.32 5 5 C3.02 5.66 1.04 6.32 -1 7 C-2.32 5.68 -3.64 4.36 -5 3 C-3.68 3.33 -2.36 3.66 -1 4 C-0.67 2.68 -0.34 1.36 0 0 Z " fill="#0D101A" transform="translate(469,813)"/>
<path d="M0 0 C0.66 0 1.32 0 2 0 C2 6.6 2 13.2 2 20 C0.68 19.01 -0.64 18.02 -2 17 C-1.67 16.34 -1.34 15.68 -1 15 C-0.76827173 12.45384991 -0.58105471 9.92603775 -0.4375 7.375 C-0.39431641 6.66859375 -0.35113281 5.9621875 -0.30664062 5.234375 C-0.20055249 3.48981463 -0.09977111 1.74493303 0 0 Z " fill="#CBD0DB" transform="translate(438,767)"/>
<path d="M0 0 C-2.44130293 1.26947753 -4.76630011 2.26962411 -7.375 3.1875 C-11.74634585 5.00023953 -14.22223095 8.28613296 -17 12 C-17.99 11.34 -18.98 10.68 -20 10 C-8.54651163 -0.61046512 -8.54651163 -0.61046512 0 0 Z " fill="#11141B" transform="translate(541,579)"/>
<path d="M0 0 C1.34384766 -0.03867187 1.34384766 -0.03867187 2.71484375 -0.078125 C3.48957031 0.03015625 4.26429688 0.1384375 5.0625 0.25 C7.0625 3.25 7.0625 3.25 6.6875 5.4375 C6.48125 6.035625 6.275 6.63375 6.0625 7.25 C4.0625 4.25 4.0625 4.25 4.0625 2.25 C1.7525 2.58 -0.5575 2.91 -2.9375 3.25 C-2.6075 5.23 -2.2775 7.21 -1.9375 9.25 C-2.5975 8.92 -3.2575 8.59 -3.9375 8.25 C-4.66825648 5.9359378 -5.33888258 3.60171131 -5.9375 1.25 C-4.27065985 -0.41684015 -2.28106931 0.03927236 0 0 Z " fill="#E0E6EC" transform="translate(503.9375,780.75)"/>
<path d="M0 0 C0.33 0.66 0.66 1.32 1 2 C0.67 2.598125 0.34 3.19625 0 3.8125 C-1.27265288 6.59642818 -0.80300483 8.10918261 0 11 C-0.78375 11.5775 -1.5675 12.155 -2.375 12.75 C-4.80047244 14.82897637 -5.85694417 16.09040333 -7 19 C-7.66 18.67 -8.32 18.34 -9 18 C-7.69100294 15.18585648 -6.37721835 12.37397463 -5.0625 9.5625 C-4.68931641 8.76005859 -4.31613281 7.95761719 -3.93164062 7.13085938 C-3.39506836 5.98520508 -3.39506836 5.98520508 -2.84765625 4.81640625 C-2.51773682 4.10943604 -2.18781738 3.40246582 -1.84790039 2.67407227 C-1 1 -1 1 0 0 Z " fill="#ED522A" transform="translate(597,251)"/>
<path d="M0 0 C0.66 0.33 1.32 0.66 2 1 C2 2.98 2 4.96 2 7 C-1.375 7.1875 -1.375 7.1875 -5 7 C-5.66 6.01 -6.32 5.02 -7 4 C-9.20725073 3.63637182 -9.20725073 3.63637182 -11.625 3.8125 C-12.44226563 3.83957031 -13.25953125 3.86664062 -14.1015625 3.89453125 C-15.04128906 3.94673828 -15.04128906 3.94673828 -16 4 C-15.67 3.34 -15.34 2.68 -15 2 C-11.43588567 0.94696622 -9.71715801 0.6243458 -6.375 2.375 C-5.199375 3.179375 -5.199375 3.179375 -4 4 C-1.80869466 4.69579454 -1.80869466 4.69579454 0 5 C0 3.35 0 1.7 0 0 Z " fill="#0E1119" transform="translate(788,786)"/>
<path d="M0 0 C1.2684375 -0.00773438 1.2684375 -0.00773438 2.5625 -0.015625 C5.13478811 0.26468845 6.7803108 0.9551813 9 2.25 C4.91951718 3.61016094 1.17901445 3.22208843 -3.08984375 3.08984375 C-5.98881983 3.24938472 -7.55563627 3.74804156 -10 5.25 C-9 2.25 -9 2.25 -7.25 1.078125 C-4.69542633 0.13789997 -2.71739285 -0.01656947 0 0 Z " fill="#0C0F16" transform="translate(561,781.75)"/>
<path d="M0 0 C0 0.99 0 1.98 0 3 C-1 4 -1 4 -4.5625 4.1875 C-8.95910094 4.14774773 -12.78322941 3.2047916 -17 2 C-17 1.67 -17 1.34 -17 1 C-8.585 0.505 -8.585 0.505 0 0 Z " fill="#E9EFF5" transform="translate(482,602)"/>
<path d="M0 0 C0.33 0 0.66 0 1 0 C1.061875 1.2375 1.12375 2.475 1.1875 3.75 C1.60356929 7.30550124 1.84255104 7.84639125 4.5625 10.5 C5.366875 10.995 6.17125 11.49 7 12 C6.34 12.66 5.68 13.32 5 14 C2.5 13.8125 2.5 13.8125 0 13 C-2 10 -2 10 -1.6875 7.625 C-1.460625 6.75875 -1.23375 5.8925 -1 5 C-0.814375 4.071875 -0.62875 3.14375 -0.4375 2.1875 C-0.293125 1.465625 -0.14875 0.74375 0 0 Z " fill="#232834" transform="translate(552,804)"/>
<path d="M0 0 C7.59 0 15.18 0 23 0 C22.01 1.485 22.01 1.485 21 3 C19.68 2.67 18.36 2.34 17 2 C16.67 2.99 16.34 3.98 16 5 C15.01 4.34 14.02 3.68 13 3 C13 2.67 13 2.34 13 2 C8.71 1.67 4.42 1.34 0 1 C0 0.67 0 0.34 0 0 Z " fill="#E6EBF9" transform="translate(468,806)"/>
<path d="M0 0 C0.66 0.66 1.32 1.32 2 2 C1.6442194 5.37991574 0.64284201 8.04288438 -1 11 C-1.66 11 -2.32 11 -3 11 C-3.433125 12.4540625 -3.433125 12.4540625 -3.875 13.9375 C-5 17 -5 17 -7 18 C-5.06375702 11.79522136 -2.74390859 5.89174281 0 0 Z " fill="#141720" transform="translate(491,187)"/>
<path d="M0 0 C1.14077657 3.42232972 1.09815117 6.08673217 1.0625 9.6875 C1.05347656 10.86699219 1.04445313 12.04648437 1.03515625 13.26171875 C1.02355469 14.16535156 1.01195312 15.06898438 1 16 C2.65 16 4.3 16 6 16 C6 16.33 6 16.66 6 17 C0.25 17.125 0.25 17.125 -2 16 C-1.979375 14.989375 -1.95875 13.97875 -1.9375 12.9375 C-1.99687734 9.19672743 -2.39795085 5.68755102 -3 2 C-2.01 2 -1.02 2 0 2 C0 1.34 0 0.68 0 0 Z " fill="#242835" transform="translate(268,801)"/>
<path d="M0 0 C2.58470444 0.36924349 4.04579142 1.03270816 6.1875 2.5625 C8.7565508 6.01743039 8.71564415 8.7346622 9 13 C7.25372522 10.38058783 6.61277612 8.96175123 6 6 C5.01 6 4.02 6 3 6 C1.66018514 5.6937566 0.32488113 5.36548445 -1 5 C-0.67 3.35 -0.34 1.7 0 0 Z " fill="#232734" transform="translate(480,785)"/>
<path d="M0 0 C0.53625 0.37125 1.0725 0.7425 1.625 1.125 C-2.76953125 5.12890625 -2.76953125 5.12890625 -4.375 6.125 C-5.365 5.795 -6.355 5.465 -7.375 5.125 C-8.0625 3.0625 -8.0625 3.0625 -8.375 1.125 C-2.95961538 -1.09038462 -2.95961538 -1.09038462 0 0 Z " fill="#222632" transform="translate(742.375,811.875)"/>
<path d="M0 0 C2.475 0.99 2.475 0.99 5 2 C5 2.99 5 3.98 5 5 C4.34 4.34 3.68 3.68 3 3 C2.34 4.32 1.68 5.64 1 7 C0.34 6.34 -0.32 5.68 -1 5 C-3.32275177 4.59952556 -5.65739357 4.2602896 -8 4 C-8.33 3.01 -8.66 2.02 -9 1 C-6.03 1 -3.06 1 0 1 C0 0.67 0 0.34 0 0 Z " fill="#262B38" transform="translate(313,785)"/>
<path d="M0 0 C0.80050781 0.12761719 1.60101562 0.25523437 2.42578125 0.38671875 C3.23402344 0.50660156 4.04226563 0.62648438 4.875 0.75 C5.48988281 0.85699219 6.10476563 0.96398437 6.73828125 1.07421875 C6.40828125 2.06421875 6.07828125 3.05421875 5.73828125 4.07421875 C4.50078125 4.01234375 3.26328125 3.95046875 1.98828125 3.88671875 C-1.04383177 3.87059049 -2.08420171 3.96770852 -4.76171875 5.57421875 C-5.25671875 6.06921875 -5.75171875 6.56421875 -6.26171875 7.07421875 C-5.58326522 3.13918827 -4.37247274 0.14348356 0 0 Z " fill="#232833" transform="translate(684.26171875,784.92578125)"/>
<path d="M0 0 C7.75 -0.125 7.75 -0.125 10 1 C8.73147656 4.27701888 7.38102094 7.51902936 6 10.75 C5.67 11.52859375 5.34 12.3071875 5 13.109375 C4 15 4 15 2 16 C5.07517084 5.44191344 5.07517084 5.44191344 7 1 C4.69 1 2.38 1 0 1 C0 0.67 0 0.34 0 0 Z " fill="#D7DCE6" transform="translate(529,782)"/>
<path d="M0 0 C1.485 0.99 1.485 0.99 3 2 C3.99 2 4.98 2 6 2 C7.6875 4 7.6875 4 9 6 C8.01 6.495 8.01 6.495 7 7 C7.66 7.66 8.32 8.32 9 9 C5.67545017 8.42680175 4.26018355 7.45672125 2 5 C1.01 4.34 0.02 3.68 -1 3 C-0.67 2.01 -0.34 1.02 0 0 Z " fill="#212632" transform="translate(716,809)"/>
<path d="M0 0 C0.66 0 1.32 0 2 0 C2.66 2.31 3.32 4.62 4 7 C4.33 7 4.66 7 5 7 C5.125 10.375 5.125 10.375 5 14 C4.34 14.66 3.68 15.32 3 16 C2.49595192 13.89679937 1.99689492 11.79240209 1.5 9.6875 C1.08234375 7.92986328 1.08234375 7.92986328 0.65625 6.13671875 C0 3 0 3 0 0 Z " fill="#E1E6EC" transform="translate(251,792)"/>
<path d="M0 0 C6.81598387 -0.33278764 11.92122066 -0.24201565 18 3 C17.67 3.66 17.34 4.32 17 5 C14.53895062 4.74551193 12.08256695 4.47227281 9.625 4.1875 C8.92632812 4.11724609 8.22765625 4.04699219 7.5078125 3.97460938 C5.65667662 3.75211708 3.82461795 3.38337478 2 3 C1.34 2.01 0.68 1.02 0 0 Z " fill="#E9EFF9" transform="translate(266,575)"/>
<path d="M0 0 C6.93 0 13.86 0 21 0 C20.67 1.65 20.34 3.3 20 5 C19.01 4.34 18.02 3.68 17 3 C17 2.67 17 2.34 17 2 C11.39 1.67 5.78 1.34 0 1 C0 0.67 0 0.34 0 0 Z " fill="#E4E9F8" transform="translate(556,806)"/>
<path d="M0 0 C0.33 0 0.66 0 1 0 C3.00004226 5.62511886 3.38165861 8.49241446 1 14 C0.67 14 0.34 14 0 14 C-1.09321611 9.49048355 -2.13999677 4.27999354 0 0 Z " fill="#151922" transform="translate(257,799)"/>
<path d="M0 0 C0.66 0.33 1.32 0.66 2 1 C0.68 4.63 -0.64 8.26 -2 12 C-2.66 11.67 -3.32 11.34 -4 11 C-4.625 7.9375 -4.625 7.9375 -5 5 C-4.01 5.495 -4.01 5.495 -3 6 C-2.01 4.02 -1.02 2.04 0 0 Z " fill="#E4EAEF" transform="translate(521,799)"/>
<path d="M0 0 C1.42600325 4.27800976 -0.54362936 6.86765922 -2.4375 10.6875 C-2.77587891 11.38939453 -3.11425781 12.09128906 -3.46289062 12.81445312 C-4.29981348 14.54723706 -5.14877393 16.27419752 -6 18 C-7 15 -7 15 -5.625 12.1875 C-5.08875 11.135625 -4.5525 10.08375 -4 9 C-3.835 7.948125 -3.67 6.89625 -3.5 5.8125 C-2.96200039 2.78625222 -2.37373978 1.85770939 0 0 Z " fill="#EF4925" transform="translate(561,461)"/>
<path d="M0 0 C0.33 0.66 0.66 1.32 1 2 C1.99 2.33 2.98 2.66 4 3 C3.67 4.65 3.34 6.3 3 8 C2.01 7.67 1.02 7.34 0 7 C-0.33 7.66 -0.66 8.32 -1 9 C-2.5625 7.8125 -2.5625 7.8125 -4 6 C-3.6875 3.3125 -3.6875 3.3125 -3 1 C-2.01 2.32 -1.02 3.64 0 5 C0 3.35 0 1.7 0 0 Z " fill="#222733" transform="translate(507,787)"/>
<path d="M0 0 C0.33 0 0.66 0 1 0 C1.50113974 6.91851255 1.20711348 11.35044762 -3 17 C-3.99 17.33 -4.98 17.66 -6 18 C-4.93580316 15.78974503 -3.86760706 13.81464989 -2.4375 11.8125 C-0.47047313 7.96396917 -0.26970635 4.26880048 0 0 Z " fill="#CBD1DC" transform="translate(439,796)"/>
<path d="M0 0 C7.44 1.44 7.44 1.44 11 5 C7.7 5.33 4.4 5.66 1 6 C0.34 4.35 -0.32 2.7 -1 1 C-0.67 0.67 -0.34 0.34 0 0 Z " fill="#262B37" transform="translate(346,814)"/>
<path d="M0 0 C0.99 0.33 1.98 0.66 3 1 C3 4.63 3 8.26 3 12 C2.67 11.34 2.34 10.68 2 10 C1.34 10 0.68 10 0 10 C0 6.7 0 3.4 0 0 Z " fill="#161923" transform="translate(365,793)"/>
<path d="M0 0 C0.08159574 4.16138263 -0.01751476 7.9472484 -1 12 C-1.66 11.67 -2.32 11.34 -3 11 C-3.5953171 8.16079537 -4.06307518 5.85558538 -4 3 C-1.9375 0 -1.9375 0 0 0 Z " fill="#E0E6EC" transform="translate(272,796)"/>
<path d="M0 0 C0.66 0 1.32 0 2 0 C2 0.66 2 1.32 2 2 C6.62 2 11.24 2 16 2 C16 2.33 16 2.66 16 3 C9.565 3.495 9.565 3.495 3 4 C3 4.66 3 5.32 3 6 C2.34 6 1.68 6 1 6 C0.67 4.02 0.34 2.04 0 0 Z " fill="#E1E6F2" transform="translate(298,804)"/>
<path d="M0 0 C4.53723617 0.98635569 7.63072397 2.82891668 11 6 C11 6.66 11 7.32 11 8 C10.01 7.67 9.02 7.34 8 7 C8 6.34 8 5.68 8 5 C4.34920174 3.38935371 0.9492568 2.55105909 -3 2 C-2.01 1.34 -1.02 0.68 0 0 Z " fill="#E8EEF4" transform="translate(691,780)"/>
<path d="M0 0 C0.99 0 1.98 0 3 0 C3.1875 3.3125 3.1875 3.3125 3 7 C2.01 7.99 1.02 8.98 0 10 C0 6.7 0 3.4 0 0 Z " fill="#1A1E2B" transform="translate(337,770)"/>
<path d="M0 0 C2.78388975 1.70625501 3.85384206 2.47626739 4.75 5.6875 C4.87375 6.8321875 4.87375 6.8321875 5 8 C2.03 7.67 -0.94 7.34 -4 7 C-1 5 -1 5 1 5 C0.67 3.35 0.34 1.7 0 0 Z " fill="#282C39" transform="translate(706,596)"/>
<path d="M0 0 C0.99 0 1.98 0 3 0 C3 3.63 3 7.26 3 11 C2.01 10.67 1.02 10.34 0 10 C0 6.7 0 3.4 0 0 Z " fill="#222733" transform="translate(639,602)"/>
<path d="M0 0 C3.3 0 6.6 0 10 0 C9.67 0.99 9.34 1.98 9 3 C6.03 3 3.06 3 0 3 C0 2.01 0 1.02 0 0 Z " fill="#262933" transform="translate(335,607)"/>
<path d="M0 0 C2.05078125 0.03255208 4.1015625 0.06510417 6.15234375 0.09765625 C6.48234375 1.08765625 6.81234375 2.07765625 7.15234375 3.09765625 C0.52734375 3.34765625 0.52734375 3.34765625 -2.84765625 1.09765625 C-1.84765625 0.09765625 -1.84765625 0.09765625 0 0 Z " fill="#2B2F3C" transform="translate(640.84765625,785.90234375)"/>
<path d="M0 0 C0.66 0.33 1.32 0.66 2 1 C1.360625 1.103125 0.72125 1.20625 0.0625 1.3125 C-0.9584375 1.6528125 -0.9584375 1.6528125 -2 2 C-2.33 2.99 -2.66 3.98 -3 5 C-4.32 4.34 -5.64 3.68 -7 3 C-4.69631264 1.93347808 -2.35981813 0.93578995 0 0 Z M-9 4 C-8.34 4.33 -7.68 4.66 -7 5 C-7.99 5 -8.98 5 -10 5 C-9.67 4.67 -9.34 4.34 -9 4 Z " fill="#E1E7EE" transform="translate(355,634)"/>
<path d="M0 0 C2.31 0 4.62 0 7 0 C8.33332095 2.6666419 7.67102033 4.16680303 7 7 C5.68 6.67 4.36 6.34 3 6 C3.99 6 4.98 6 6 6 C4.95125002 3.37812506 4.35068687 2.20628639 1.875 0.75 C0.946875 0.37875 0.946875 0.37875 0 0 Z " fill="#242833" transform="translate(781,784)"/>
<path d="M0 0 C0.99 0 1.98 0 3 0 C1.70700306 2.88437779 0.34058637 4.87219421 -2 7 C-2.99 6.67 -3.98 6.34 -5 6 C-4.54625 5.566875 -4.0925 5.13375 -3.625 4.6875 C-1.79975666 2.89201658 -1.79975666 2.89201658 0 0 Z " fill="#222632" transform="translate(373,647)"/>
<path d="M0 0 C0.66 0.33 1.32 0.66 2 1 C-1.465 3.97 -1.465 3.97 -5 7 C-5.33 6.34 -5.66 5.68 -6 5 C-5.34 5 -4.68 5 -4 5 C-4.33 4.01 -4.66 3.02 -5 2 C-2.625 0.9375 -2.625 0.9375 0 0 Z " fill="#242834" transform="translate(338,585)"/>
<path d="M0 0 C0.66 0 1.32 0 2 0 C2 2.31 2 4.62 2 7 C0.68 7.33 -0.64 7.66 -2 8 C-1.34 5.36 -0.68 2.72 0 0 Z " fill="#E4EAF2" transform="translate(529,801)"/>
<path d="M0 0 C2.33294775 -0.04241723 4.66702567 -0.04092937 7 0 C8 1 8 1 8.0625 4.5625 C8.041875 5.696875 8.02125 6.83125 8 8 C6 5 6 5 5 2 C3.35 1.67 1.7 1.34 0 1 C0 0.67 0 0.34 0 0 Z " fill="#393C49" transform="translate(259,791)"/>
<path d="M0 0 C3.55780196 0.60990891 6.6828589 1.5783681 10 3 C9.34 3.66 8.68 4.32 8 5 C7.01 5 6.02 5 5 5 C5 4.34 5 3.68 5 3 C2.525 2.01 2.525 2.01 0 1 C0 0.67 0 0.34 0 0 Z " fill="#E5EAF1" transform="translate(650,669)"/>
<path d="M0 0 C2.12038635 2.61514317 4.13091744 5.19637616 6 8 C5.01 8 4.02 8 3 8 C0.75 5.6875 0.75 5.6875 -1 3 C-0.67 2.01 -0.34 1.02 0 0 Z " fill="#E7ECF3" transform="translate(291,810)"/>
<path d="M0 0 C2.64 0 5.28 0 8 0 C7.01 0.33 6.02 0.66 5 1 C5.33 2.32 5.66 3.64 6 5 C2.83884224 3.63016497 2.0072908 3.0109362 0 0 Z " fill="#E4EAF5" transform="translate(316,806)"/>
<path d="M0 0 C1.98 0.495 1.98 0.495 4 1 C4.33 2.32 4.66 3.64 5 5 C2 5 2 5 0.3125 3.5 C-0.120625 3.005 -0.55375 2.51 -1 2 C-0.67 1.34 -0.34 0.68 0 0 Z " fill="#252936" transform="translate(435,785)"/>
<path d="M0 0 C2.99324263 1.0975223 3.84610901 1.67682892 5.25 4.625 C5.4975 5.40875 5.745 6.1925 6 7 C5.34 7 4.68 7 4 7 C0 2.52941176 0 2.52941176 0 0 Z " fill="#E3E9EF" transform="translate(485,784)"/>
<path d="M0 0 C2.88437779 1.29299694 4.87219421 2.65941363 7 5 C6.67 5.99 6.34 6.98 6 8 C1.125 3.375 1.125 3.375 0 0 Z " fill="#E3E8ED" transform="translate(292,583)"/>
</svg>
